<svg width="80" height="43" viewBox="0 0 80 43" fill="none" xmlns="http://www.w3.org/2000/svg">
<path d="M18.8766 11.2152H33.9654V12.2837H20.2598V20.3257H33.1481V21.3942H20.2598V30.2234H34.1225V31.2919H18.8766V11.2152ZM35.3171 11.2152H36.9202L44.0245 20.0445L51.286 11.2152L61.1627 0L44.9361 20.9724L53.2978 31.2919H51.6318L44.0245 21.9003L36.3858 31.2919H34.7512L43.1758 20.9724L35.3171 11.2152ZM53.8951 12.2837V11.2152H71.0899V12.2837H63.1684V31.2919H61.7852V12.2837H53.8951ZM0 11.2152H1.72892L25.5697 43.0007L15.7174 31.2919L1.446 12.7336L1.38313 31.2919H0V11.2152ZM70.9506 29.901C70.668 29.901 70.4561 29.7059 70.4561 29.4538C70.4561 29.2017 70.668 29.0066 70.9506 29.0066C71.2365 29.0066 71.4451 29.2017 71.4451 29.4538C71.4451 29.7059 71.2365 29.901 70.9506 29.901ZM72.3097 28.7245H73.0498C73.0599 29.0816 73.3525 29.3217 73.7831 29.3217C74.2642 29.3217 74.5367 29.0636 74.5367 28.5804V25.5192H75.2903V28.5834C75.2903 29.4538 74.7251 29.955 73.7899 29.955C72.9118 29.955 72.3097 29.4688 72.3097 28.7245ZM76.2759 28.6855H77.0228C77.0867 29.0967 77.5375 29.3578 78.1868 29.3578C78.7923 29.3578 79.2364 29.0786 79.2364 28.6945C79.2364 28.3644 78.9538 28.1663 78.3112 28.0312L77.6855 27.8962C76.8075 27.7131 76.4072 27.3349 76.4072 26.6987C76.4072 25.9274 77.1136 25.4142 78.1733 25.4142C79.159 25.4142 79.8789 25.9274 79.9226 26.6567H79.1893C79.1186 26.2575 78.7284 26.0084 78.1632 26.0084C77.5678 26.0084 77.1708 26.2635 77.1708 26.6537C77.1708 26.9628 77.4265 27.1399 78.0589 27.2719L78.5938 27.389C79.5896 27.5961 80 27.9562 80 28.6075C80 29.4358 79.2801 29.955 78.1296 29.955C77.0531 29.955 76.3298 29.4598 76.2759 28.6855Z" fill="#330036"/>
</svg>
