<svg width="75" height="48" viewBox="0 0 75 48" fill="none" xmlns="http://www.w3.org/2000/svg">
<path d="M64.5451 27.5887C61.9235 27.6003 59.6531 28.1373 57.7509 28.9392C57.0554 27.7531 56.3498 26.7096 56.2322 25.9339C56.0941 25.0287 55.9339 24.4873 56.1009 23.4089C56.268 22.3304 56.9992 20.8023 56.989 20.6873C56.9787 20.5724 56.8253 20.0237 55.3134 20.0135C53.8015 20.0048 52.5078 20.2624 52.3561 20.6029C52.2044 20.9435 51.9129 21.7104 51.7322 22.5109C51.468 23.681 48.7136 27.8564 47.1505 30.0395C46.6392 29.1866 46.2045 28.4357 46.1142 27.8419C45.9761 26.9367 45.8159 26.3953 45.9829 25.3168C46.15 24.2384 46.8812 22.7103 46.871 22.5953C46.8607 22.4803 46.7073 21.9317 45.1954 21.9215C43.6835 21.9127 42.3898 22.1703 42.2381 22.5109C42.0864 22.8515 41.9228 23.6475 41.6142 24.4189C41.304 25.1888 37.6444 32.1527 36.6848 33.9588C36.1956 34.8786 35.7712 35.6179 35.4712 36.1215C35.4695 36.12 35.4695 36.1185 35.4695 36.1185C35.4695 36.1185 35.4507 36.152 35.42 36.2088C35.1627 36.6381 35.011 36.8753 35.011 36.8753C35.011 36.8753 35.0127 36.8782 35.0161 36.8841C34.8115 37.1999 34.5933 37.4924 34.486 37.4924C34.411 37.4924 34.2593 36.6527 34.5183 35.5C35.0638 33.0841 36.3712 29.3176 36.3592 29.1867C36.3524 29.1197 36.603 28.4633 35.5053 28.1199C34.4382 27.7866 34.0581 28.3425 33.961 28.344C33.8672 28.3455 33.7973 28.5405 33.7973 28.5405C33.7973 28.5405 34.9854 24.3039 31.5303 24.3039C29.369 24.3039 26.3759 26.3225 24.9015 28.1519C23.9708 28.5856 21.9782 29.5141 19.8663 30.5052C19.055 30.8865 18.2266 31.2751 17.4408 31.6448C17.388 31.5938 17.3334 31.5443 17.2789 31.4934C13.0875 27.676 5.34217 24.9763 5.66944 19.8432C5.78876 17.9774 6.54897 13.0641 20.555 7.10587C32.0281 2.22458 41.2137 3.56788 42.8006 6.5441C45.0676 10.7981 37.8916 18.7022 25.977 19.8432C21.4379 20.2784 19.0465 18.775 18.4516 18.2161C17.826 17.6267 17.7323 17.6005 17.4988 17.7111C17.1187 17.8916 17.359 18.4111 17.4988 18.7211C17.855 19.5114 19.3141 20.9129 21.8027 21.6115C23.993 22.2256 29.323 22.5618 35.7678 20.4326C42.9881 18.0488 48.6249 11.4152 46.9681 5.87173C45.2841 0.233647 34.3343 -1.62049 23.9708 1.5231C17.7954 3.3947 11.1188 6.33162 6.31715 10.165C0.608735 14.7232 -0.301475 18.692 0.0735178 20.3497C1.40645 26.241 10.9159 30.0773 14.7238 32.9197C14.5363 33.0084 14.3591 33.0914 14.1988 33.1671C12.2898 33.9733 5.04047 37.213 3.22687 40.6345C1.16952 44.516 3.55414 47.3016 5.13252 47.677C10.0228 48.8384 15.0409 46.7485 17.7391 43.3139C20.4356 39.8807 20.1067 35.4083 18.8692 33.3679C18.8539 33.3432 18.8368 33.3184 18.8215 33.2922C19.3141 33.0434 19.8169 32.7901 20.3146 32.5398C21.2862 32.0523 22.2407 31.5982 23.0674 31.214C22.6038 32.2968 22.2646 33.5964 22.089 35.4724C21.8811 37.6758 22.9396 40.5239 24.3236 41.6446C24.9339 42.1379 25.6668 42.1496 26.1304 42.1496C27.7412 42.1496 28.4758 41.0057 29.2855 39.6522C30.2775 37.9931 31.1588 36.0603 31.1588 36.0603C31.1588 36.0603 30.0542 41.2793 33.0644 41.2793C34.1621 41.2793 35.2649 40.064 35.7575 39.4455C35.7592 39.4528 35.7592 39.4557 35.7592 39.4557C35.7592 39.4557 35.7882 39.4149 35.8445 39.3349C35.9587 39.1865 36.0234 39.0919 36.0234 39.0919C36.0234 39.0919 36.0251 39.0817 36.0285 39.0642C36.47 38.4107 37.4484 36.9205 38.9143 34.4623C40.8097 31.2867 42.6267 27.3078 42.6267 27.3078C42.6267 27.3078 42.7955 28.28 43.3494 29.8896C43.675 30.8356 44.367 31.882 44.9142 32.8862C44.4744 33.4072 44.2051 33.7056 44.2051 33.7056C44.2051 33.7056 44.2068 33.7114 44.2119 33.7216C43.8608 34.1203 43.4671 34.5497 43.0546 34.9688C41.558 36.4897 39.7768 38.2274 39.5381 38.728C39.2569 39.3189 39.3234 39.7526 39.8671 40.1033C40.2643 40.358 40.9699 40.3988 41.708 40.3566C43.0529 40.2794 43.9972 39.9942 44.4642 39.821C45.192 39.6012 46.0392 39.2563 46.8335 38.7571C48.3011 37.8359 49.1857 36.5188 49.1005 34.7723C49.0527 33.8103 48.6948 32.8571 48.2397 31.9577C48.3726 31.7947 48.5056 31.6288 48.6403 31.4628C50.9533 28.5754 52.7481 25.4027 52.7481 25.4027C52.7481 25.4027 52.9169 26.3749 53.4708 27.9845C53.7504 28.7981 54.3044 29.6873 54.8021 30.5576C52.6271 32.0668 51.2788 33.8205 50.8101 34.9703C49.9442 37.098 50.6226 38.0615 51.8942 38.2812C52.4703 38.3802 53.2851 38.1546 53.897 37.9334C54.6589 37.718 55.5742 37.3585 56.4299 36.8215C57.8975 35.9002 59.3088 34.6108 59.2236 32.8658C59.1844 32.0712 58.9321 31.2824 58.5895 30.5256C60.4338 29.8692 62.8201 29.5054 65.861 29.8081C72.3841 30.4586 73.6625 33.9355 73.4188 35.3909C73.1733 36.8462 71.8063 37.6467 71.3478 37.8883C70.891 38.1299 70.7512 38.2143 70.7887 38.3933C70.845 38.6538 71.0563 38.6451 71.4467 38.5883C71.9836 38.5112 74.871 37.4051 74.9955 34.7185C75.1506 31.3042 71.3239 27.5581 64.5451 27.5887ZM14.267 42.0608C12.1057 44.0736 9.0887 44.8333 7.79326 44.1929C6.39556 43.5016 6.94953 40.5385 9.60005 38.402C11.2159 37.1009 13.3023 35.9017 14.6863 35.1638C15.0017 35.0023 15.4636 34.7651 16.0261 34.4769C16.1198 34.4318 16.1727 34.407 16.1727 34.407L16.171 34.4041C16.28 34.3488 16.3908 34.2921 16.505 34.2324C17.4715 37.2727 16.5357 39.9491 14.267 42.0608ZM30.0082 32.9255C29.2565 34.4915 27.6815 38.4995 26.7219 38.2841C25.8986 38.0993 25.3975 35.0532 26.5583 32.0552C27.1412 30.546 28.3889 28.7428 29.1219 28.0427C30.3014 26.9163 31.6002 26.5481 31.9156 27.0051C32.3161 27.5872 30.4804 31.9431 30.0082 32.9255ZM43.0119 38.223C42.6932 38.3656 42.4 38.4544 42.2654 38.386C42.1648 38.3351 42.3966 38.1473 42.3966 38.1473C42.3966 38.1473 44.0227 36.6527 44.6636 35.973C45.0369 35.5772 45.4682 35.1071 45.9386 34.5831C45.942 34.6355 45.9437 34.6879 45.9437 34.7389C45.9403 36.529 43.9153 37.7369 43.0119 38.223ZM53.0294 36.2728C52.7907 36.1287 52.8317 35.6616 53.614 34.2047C53.9208 33.6328 54.6231 32.6708 55.8401 31.751C55.9816 32.1294 56.0668 32.4918 56.0651 32.8294C56.0498 35.0823 54.168 35.9235 53.0294 36.2728Z" fill="#F06292"/>
</svg>
