<svg width="62" height="54" viewBox="0 0 62 54" fill="none" xmlns="http://www.w3.org/2000/svg">
<path d="M61.7672 0H0.233398V54H61.7672V0Z" fill="#1976D2"/>
<path d="M36.965 24H14.2949V28.896H22.4259V51H28.8682V28.896H36.965V24Z" fill="#FFFBEF"/>
<path d="M56.9713 30.1259C56.9713 30.1259 53.9168 28.3379 50.4641 28.3379C47.0114 28.3379 45.7687 29.7779 45.7687 31.3169C45.7687 35.2889 58.3849 34.8914 58.3849 42.8849C58.3849 55.1985 39.1487 49.737 39.1487 49.737V43.8299C39.1487 43.8299 42.8271 46.2629 47.2387 46.2629C51.6503 46.2629 51.4828 43.7309 51.4828 43.3829C51.4828 39.7094 38.9795 39.7094 38.9795 31.5659C38.9795 20.4943 57.1969 24.8624 57.1969 24.8624L56.9713 30.1259Z" fill="#FFFBEF"/>
</svg>
