<svg width="58" height="54" viewBox="0 0 58 54" fill="none" xmlns="http://www.w3.org/2000/svg">
<path d="M28.9999 0L2 13.5V40.4999L28.9999 53.9999L55.9999 40.4999V13.5L28.9999 0Z" fill="#ECEFF1"/>
<path d="M28.206 27.6748V39.8247L14.7061 33.7498V20.9248L28.206 27.6748Z" fill="#0277BD"/>
<path d="M29.7939 27.6748V39.8247L43.2939 33.7498V20.9248L29.7939 27.6748Z" fill="#0277BD"/>
<path d="M29 26.3248L15.5 19.5748L29 13.4998L42.4999 19.5748L29 26.3248Z" fill="#0277BD"/>
<path d="M28.0642 0.000244141V9.5296L11.2477 17.4707L1.90527 12.7061L28.0642 0.000244141Z" fill="#81D4FA"/>
<path d="M28.0642 54V44.4706L11.2477 36.5295L1.90527 41.2942L28.0642 54Z" fill="#81D4FA"/>
<path d="M10.3142 19.0589L0.97168 14.2942V39.7058L10.3142 34.9411V19.0589Z" fill="#81D4FA"/>
<path d="M29.9336 0.000244141V9.5296L46.75 17.4707L56.0925 12.7061L29.9336 0.000244141Z" fill="#81D4FA"/>
<path d="M29.9336 54V44.4706L46.75 36.5295L56.0925 41.2942L29.9336 54Z" fill="#81D4FA"/>
<path d="M47.6846 19.0589L57.0271 14.2942V39.7058L47.6846 34.9411V19.0589Z" fill="#81D4FA"/>
</svg>
