<svg width="22" height="23" viewBox="0 0 22 23" fill="none" xmlns="http://www.w3.org/2000/svg">
<path fill-rule="evenodd" clip-rule="evenodd" d="M0 11.5023C0 5.27376 4.9247 0.224854 11 0.224854C17.0753 0.224854 22 5.27376 22 11.5023C22 16.5134 18.8095 20.756 14.399 22.2249H14.2127C13.9578 22.1772 13.7493 21.9431 13.7493 21.653V18.3802C13.7493 17.6308 13.4594 16.9536 12.9941 16.4489C16.2094 16.0531 18.0085 14.5497 18.0085 11.1264C18.0085 9.82383 17.5784 8.74343 16.8441 7.89647C16.9239 7.71321 17.0069 7.46736 17.0482 7.15835C17.1378 6.49037 17.0422 6.07561 16.9515 5.68177C16.9465 5.66002 16.9415 5.63834 16.9365 5.61669C16.8419 5.2028 16.7303 4.91183 16.7303 4.91183C16.7303 4.91183 16.2232 4.85883 15.7936 5.00882C15.7562 5.02188 15.7193 5.03467 15.6826 5.04735C15.2985 5.18035 14.9481 5.30165 14.4615 5.59921C14.2124 5.75146 13.9616 5.91837 13.763 6.0537C12.9144 5.81236 11.981 5.6883 10.9993 5.6883C10.0087 5.6883 9.0671 5.81292 8.2124 6.05595C8.0133 5.92006 7.76085 5.75202 7.51005 5.59864C7.0235 5.30109 6.67309 5.17978 6.28891 5.04678C6.25228 5.0341 6.21534 5.02132 6.17795 5.00826C5.7484 4.85826 5.2413 4.91127 5.2413 4.91127C5.2413 4.91127 5.12965 5.20223 5.03505 5.61613C5.0301 5.63778 5.02511 5.65945 5.0201 5.68119C4.92934 6.07503 4.83375 6.4898 4.9234 7.15778C4.96575 7.47469 5.05155 7.72505 5.1335 7.90944C4.413 8.75132 3.9906 9.82496 3.9906 11.1258C3.9906 14.4996 5.7682 16.0395 9.00715 16.4461C8.6293 16.8555 8.37575 17.3799 8.2905 17.9635C8.07765 18.0594 7.83235 18.1496 7.5964 18.1857C6.9892 18.2798 6.34735 18.1857 6.03825 17.9979C5.72915 17.8101 5.3623 17.3872 5.0873 16.9756C4.8552 16.6282 4.52025 16.225 4.21665 16.0829C3.8157 15.8952 3.42575 15.8247 3.2085 15.8596C2.9907 15.8952 2.88785 16.0593 2.9335 16.1771C2.97915 16.2944 3.19695 16.4709 3.4263 16.6C3.65565 16.7292 4.01095 17.0816 4.2172 17.4222C4.36732 17.6703 4.43865 17.85 4.52428 18.0657C4.56979 18.1803 4.61934 18.3051 4.6869 18.4558C4.82385 18.7614 5.29245 19.1431 5.6263 19.3484C5.91285 19.5249 6.4854 19.6253 7.1047 19.654C7.31865 19.6642 7.8241 19.5999 8.25035 19.5379V21.6524C8.25035 21.9443 8.03922 22.1796 7.78184 22.2249H7.60194C7.60127 22.2247 7.60059 22.2246 7.59992 22.2245C3.19003 20.7553 0 16.513 0 11.5023ZM3.87895 16.238C3.85035 16.2961 3.896 16.3784 3.9807 16.423C4.0654 16.4675 4.1578 16.4568 4.1864 16.3987C4.215 16.3406 4.16935 16.2583 4.08465 16.2138C3.99995 16.1692 3.90755 16.1799 3.87895 16.238ZM4.43335 16.8137C4.50705 16.8825 4.60275 16.8983 4.6473 16.8487C4.69185 16.7991 4.6682 16.7027 4.5945 16.6339C4.5208 16.5651 4.4251 16.5493 4.38055 16.5989C4.336 16.6485 4.35965 16.7449 4.43335 16.8137ZM4.8497 17.469C4.91075 17.5564 5.0059 17.5942 5.062 17.5536C5.1181 17.513 5.1137 17.4086 5.0532 17.3212C4.99215 17.2338 4.897 17.196 4.8409 17.2366C4.7848 17.2772 4.78865 17.3816 4.8497 17.469ZM5.4173 18.0909C5.5119 18.1501 5.6197 18.1473 5.65765 18.0842C5.6956 18.021 5.6494 17.9218 5.5548 17.8626C5.4602 17.8034 5.3524 17.8062 5.31445 17.8693C5.2765 17.9325 5.3227 18.0317 5.4173 18.0909ZM6.0267 18.436C6.0168 18.5138 6.1037 18.5888 6.22085 18.6035C6.338 18.6182 6.4403 18.5669 6.44965 18.4896C6.45955 18.4118 6.37265 18.3368 6.2555 18.3221C6.1389 18.3075 6.03605 18.3582 6.0267 18.436ZM6.91165 18.5753C6.9067 18.6576 7.00405 18.7309 7.1289 18.7383C7.25375 18.7456 7.3588 18.6847 7.36375 18.6018C7.3687 18.5195 7.27135 18.4462 7.1465 18.4389C7.02165 18.4315 6.9166 18.493 6.91165 18.5753ZM7.7449 18.4919C7.7449 18.5793 7.8527 18.6503 7.9858 18.6503C8.11835 18.6503 8.2267 18.5793 8.2267 18.4919C8.2267 18.4045 8.1189 18.3334 7.9858 18.3334C7.8527 18.3334 7.7449 18.4045 7.7449 18.4919Z" fill="white"/>
<defs>
<linearGradient id="paint0_linear_198:204" x1="0" y1="11.2248" x2="22" y2="11.2248" gradientUnits="userSpaceOnUse">
<stop stop-color="white"/>
<stop offset="1" stop-color="white"/>
</linearGradient>
</defs>
</svg>
