<svg width="22" height="21" viewBox="0 0 22 21" fill="none" xmlns="http://www.w3.org/2000/svg">
<path d="M20 0.224854H2C0.895 0.224854 0 1.0608 0 2.09289V18.9052C0 19.9373 0.895 20.7732 2 20.7732H20C21.105 20.7732 22 19.9373 22 18.9052V2.09289C22 1.0608 21.105 0.224854 20 0.224854ZM6.954 17.0372H4.004V8.17147H6.954V17.0372ZM5.449 6.90401C4.498 6.90401 3.729 6.18388 3.729 5.2975C3.729 4.41112 4.499 3.69193 5.449 3.69193C6.397 3.69193 7.168 4.41205 7.168 5.2975C7.168 6.18388 6.397 6.90401 5.449 6.90401ZM18.004 17.0372H15.056V12.7257C15.056 11.6974 15.036 10.3748 13.523 10.3748C11.988 10.3748 11.752 11.4947 11.752 12.651V17.0372H8.804V8.17147H11.634V9.38289H11.674C12.068 8.68612 13.03 7.95105 14.465 7.95105C17.452 7.95105 18.004 9.78732 18.004 12.1747V17.0372Z" fill="#FFFBEF"/>
</svg>
