<svg width="254" height="203" viewBox="0 0 254 203" fill="none" xmlns="http://www.w3.org/2000/svg">
<path d="M127 202.522C196.479 202.522 252.802 199.225 252.802 195.157C252.802 191.09 196.479 187.792 127 187.792C57.5217 187.792 1.19824 191.09 1.19824 195.157C1.19824 199.225 57.5217 202.522 127 202.522Z" fill="#F5F5F5"/>
<path d="M173.132 186.341L168.214 184.988L170.044 173.199L174.962 174.559L173.132 186.341Z" fill="#FFC3BD"/>
<path d="M209.435 189.62H204.328L203.057 177.773H208.163L209.435 189.62Z" fill="#FFC3BD"/>
<path d="M203.913 189.028H210.129C210.23 189.029 210.329 189.064 210.408 189.128C210.487 189.192 210.542 189.28 210.564 189.38L211.576 193.934C211.599 194.045 211.597 194.161 211.57 194.271C211.543 194.381 211.491 194.484 211.419 194.572C211.347 194.659 211.255 194.73 211.152 194.777C211.049 194.824 210.937 194.847 210.823 194.845C208.825 194.812 207.365 194.689 204.841 194.689C203.29 194.689 198.619 194.851 196.477 194.851C194.336 194.851 194.051 192.73 194.927 192.535C198.859 191.676 201.824 190.486 203.083 189.354C203.309 189.145 203.605 189.029 203.913 189.028V189.028Z" fill="#263238"/>
<path d="M168.402 184.422L173.775 185.905C173.872 185.933 173.957 185.994 174.016 186.076C174.075 186.159 174.104 186.259 174.099 186.361L173.866 191.013C173.861 191.126 173.831 191.236 173.778 191.335C173.725 191.435 173.65 191.52 173.558 191.586C173.467 191.652 173.362 191.696 173.251 191.715C173.14 191.734 173.026 191.728 172.918 191.696C170.972 191.123 168.221 190.239 165.781 189.568C162.933 188.781 160.428 188.267 157.093 187.33C155.075 186.771 155.075 184.572 155.971 184.617C160.052 184.839 163.218 185.619 167.105 184.481C167.523 184.34 167.973 184.32 168.402 184.422V184.422Z" fill="#263238"/>
<path opacity="0.2" d="M170.044 173.206L169.097 179.276L174.021 180.636L174.962 174.565L170.044 173.206Z" fill="black"/>
<path opacity="0.2" d="M208.163 177.779H203.057L203.718 183.888H208.818L208.163 177.779Z" fill="black"/>
<path d="M148.45 27.5082L148.009 22.6027L143.221 24.9383C143.221 24.9383 144.479 29.2909 146.854 28.842L148.45 27.5082Z" fill="#FFC3BD"/>
<path d="M146.932 20.2931L141.534 21.4121L143.234 24.9384L148.01 22.6027L146.932 20.2931Z" fill="#FFC3BD"/>
<path d="M179.873 28.25C177.324 29.263 174.866 30.495 172.529 31.9325C172.029 32.1797 171.529 32.4269 171.023 32.6611C169.791 33.2207 168.538 33.7346 167.28 34.1771C164.926 35.0735 162.444 35.581 159.928 35.68C159.656 35.68 159.377 35.68 159.117 35.6474H158.929H158.845C158.777 35.6389 158.71 35.6259 158.644 35.6084C158.214 35.5255 157.797 35.3855 157.404 35.192C156.311 34.6229 155.296 33.9119 154.387 33.0775C152.329 31.2098 150.456 29.1464 148.794 26.9163L145.466 28.8225C146.767 31.6773 148.365 34.3859 150.235 36.9031C151.263 38.2911 152.462 39.5436 153.803 40.6311C154.611 41.2869 155.515 41.8137 156.483 42.1926C156.764 42.2948 157.049 42.3816 157.339 42.4528L157.8 42.5569L158.157 42.6154C158.618 42.7 159.078 42.7521 159.532 42.7976C162.901 42.9977 166.279 42.6282 169.524 41.7046C170.874 41.3533 172.185 40.9434 173.476 40.4945C174.864 40.2017 186.284 37.6643 188.237 33.559C190.761 28.2435 185.946 26.077 179.873 28.25Z" fill="#263238"/>
<path opacity="0.2" d="M177.713 39.3949C179.317 38.9347 180.895 38.383 182.436 37.7424L182.826 33.5525C182.826 33.5525 179.776 34.8017 177.713 39.3949Z" fill="black"/>
<path d="M210.05 28.9916C210.199 29.0303 210.339 29.098 210.462 29.1909C210.584 29.2838 210.688 29.4001 210.765 29.533C210.843 29.666 210.894 29.8131 210.915 29.9658C210.936 30.1185 210.926 30.2739 210.887 30.423C209.553 35.583 208.571 40.8282 207.948 46.1222C207.468 50.0844 207.176 53.8644 207.001 57.2996C206.573 65.3411 206.748 71.4699 206.514 73.5648C202.524 73.2916 187.491 72.2636 179.263 71.6651C175.559 42.5633 182.637 27.5733 182.637 27.5733C184.781 27.1692 186.948 26.8976 189.126 26.7601C189.586 26.7601 190.053 26.7145 190.534 26.708C194.404 26.7535 198.269 27.0229 202.109 27.5148C202.835 27.5993 203.569 27.7099 204.289 27.8271C206.638 28.1849 208.753 28.6793 210.05 28.9916Z" fill="#263238"/>
<path opacity="0.2" d="M206.372 34.3007C205.834 37.7452 206.465 41.2711 208.163 44.3135C208.487 41.8998 208.89 39.434 209.383 36.9421L206.372 34.3007Z" fill="black"/>
<path d="M201.901 14.3466C200.909 18.0355 199.955 24.6132 201.85 27.5604C199.806 29.3951 197.373 28.9332 195.29 28.6079C192.753 28.211 192.415 27.632 193.22 26.4414C193.72 25.8949 193.81 25.3353 194.284 24.0601C194.667 22.7158 194.698 21.2953 194.375 19.9353L201.901 14.3466Z" fill="#FFC3BD"/>
<path d="M193.051 24.8668C193.382 26.5389 191.319 27.4302 191.922 28.1589C192.526 28.8876 197.905 30.7223 200.273 29.857C202.641 28.9917 202.388 28.777 202.219 26.682C202.051 24.5871 203.387 23.2208 201.661 23.7803C200.779 24.0666 196.198 23.3119 194.881 23.3119C193.564 23.3119 192.785 23.5266 193.051 24.8668Z" fill="#263238"/>
<path opacity="0.2" d="M198.832 16.6301L194.375 19.9287C194.509 20.6169 194.581 21.3159 194.589 22.0172C196.192 21.9001 198.482 20.3061 198.781 18.6535C198.919 17.9876 198.936 17.3023 198.832 16.6301V16.6301Z" fill="black"/>
<path d="M192.046 2.05645C190.911 2.58345 189.074 5.04275 190.586 6.66928C192.098 8.29581 193.649 1.32126 192.046 2.05645Z" fill="#263238"/>
<path d="M203.394 8.97892C202.557 13.9886 202.317 16.9619 199.501 19.2846C195.277 22.7718 189.314 19.805 188.639 14.6457C188.036 10.0069 189.509 2.59645 194.641 1.11306C195.771 0.777898 196.967 0.738215 198.116 0.997783C199.266 1.25735 200.33 1.80753 201.207 2.59597C202.084 3.38441 202.746 4.38488 203.129 5.50214C203.511 6.61941 203.603 7.8163 203.394 8.97892V8.97892Z" fill="#FFC3BD"/>
<path d="M201.901 12.5703C200.033 11.3797 199.955 10.0004 200.519 8.76426C202.317 4.58735 201.817 2.47288 198.625 2.85673C195.433 3.24059 190.884 3.61144 191.449 2.14757C192.013 0.683706 196.023 0.0656268 199.429 0.469004C202.836 0.872381 206.489 3.52686 205.762 7.70376C205.061 11.6985 204.211 12.8306 201.901 12.5703Z" fill="#263238"/>
<path d="M205.185 13.7089C204.547 14.8149 203.5 15.6238 202.271 15.96C200.636 16.3894 199.851 14.919 200.325 13.3575C200.753 11.9848 202.122 10.1045 203.751 10.3452C205.379 10.5859 205.95 12.3426 205.185 13.7089Z" fill="#FFC3BD"/>
<path d="M167.572 177.63L175.896 179.926C175.896 179.926 182.456 146.96 182.865 131.027C182.988 126.18 185.077 120.448 186.673 113.252C188.698 104.189 191.215 94.3844 193.304 86.7072C195.498 78.6202 197.165 72.9013 197.165 72.9013L179.27 71.6456C179.27 71.6456 170.031 114.202 168.921 129.778C167.76 145.971 167.572 177.63 167.572 177.63Z" fill="#5E0064"/>
<path opacity="0.4" d="M167.572 177.63L175.896 179.926C175.896 179.926 182.456 146.96 182.865 131.027C182.988 126.18 185.077 120.448 186.673 113.252C188.698 104.189 191.215 94.3844 193.304 86.7072C195.498 78.6202 197.165 72.9013 197.165 72.9013L179.27 71.6456C179.27 71.6456 170.031 114.202 168.921 129.778C167.76 145.971 167.572 177.63 167.572 177.63Z" fill="black"/>
<path opacity="0.2" d="M186.693 113.252C188.717 104.189 191.235 94.3843 193.324 86.7071L191.468 82.6929C187.011 87.9823 185.817 104.358 186.693 113.252Z" fill="black"/>
<path d="M188.925 72.3223C188.925 72.3223 190.222 113.024 192.351 127.858C194.712 144.123 201.356 182.705 201.356 182.705H210.7C210.7 182.705 210.2 145.945 207.274 130.207C203.939 112.289 206.489 73.5519 206.489 73.5519L188.925 72.3223Z" fill="#5E0064"/>
<path opacity="0.4" d="M188.925 72.3223C188.925 72.3223 190.222 113.024 192.351 127.858C194.712 144.123 201.356 182.705 201.356 182.705H210.7C210.7 182.705 210.2 145.945 207.274 130.207C203.939 112.289 206.489 73.5519 206.489 73.5519L188.925 72.3223Z" fill="black"/>
<path d="M200.241 182.906H211.245V179.608L198.943 179.393L200.241 182.906Z" fill="#263238"/>
<path d="M166.469 177.532L176.396 180.278L177.279 177.064L166.229 173.83L166.469 177.532Z" fill="#263238"/>
<path d="M196.276 9.25876C196.237 9.66865 195.984 9.98095 195.718 9.95492C195.452 9.9289 195.264 9.57106 195.31 9.16118C195.355 8.75129 195.601 8.43899 195.874 8.46502C196.147 8.49104 196.322 8.84888 196.276 9.25876Z" fill="#263238"/>
<path d="M191.144 9.09606C191.105 9.50594 190.852 9.81824 190.579 9.78571C190.307 9.75318 190.132 9.40185 190.177 8.99197C190.222 8.58209 190.469 8.2763 190.742 8.30233C191.014 8.32835 191.189 8.68618 191.144 9.09606Z" fill="#263238"/>
<path d="M195.913 12.1799C195.263 12.2283 194.614 12.0793 194.05 11.7525C193.486 11.4257 193.033 10.9362 192.75 10.3476C192.467 9.75908 192.368 9.0988 192.465 8.45277C192.561 7.80674 192.85 7.20488 193.293 6.72555C193.735 6.24622 194.311 5.91163 194.946 5.76534C195.581 5.61906 196.246 5.66786 196.852 5.90539C197.459 6.14292 197.981 6.55817 198.349 7.09708C198.717 7.63599 198.915 8.27359 198.917 8.92687C198.945 9.75672 198.645 10.5641 198.083 11.1734C197.52 11.7826 196.74 12.1444 195.913 12.1799V12.1799ZM195.913 5.96659C195.321 5.91147 194.727 6.03708 194.208 6.32693C193.688 6.61678 193.269 7.05732 193.004 7.59068C192.739 8.12405 192.641 8.72529 192.723 9.31546C192.805 9.90563 193.063 10.4571 193.463 10.8975C193.864 11.3379 194.387 11.6466 194.966 11.783C195.544 11.9194 196.15 11.8772 196.705 11.662C197.259 11.4467 197.735 11.0684 198.071 10.5768C198.406 10.0852 198.586 9.50322 198.586 8.90735C198.614 8.16547 198.349 7.44241 197.849 6.89538C197.348 6.34835 196.652 6.02159 195.913 5.98612V5.96659Z" fill="white"/>
<path d="M189.288 12.1799C188.639 12.2283 187.99 12.0793 187.425 11.7525C186.861 11.4257 186.408 10.9362 186.126 10.3476C185.843 9.75908 185.743 9.0988 185.84 8.45277C185.937 7.80674 186.225 7.20488 186.668 6.72555C187.111 6.24622 187.687 5.91163 188.322 5.76534C188.957 5.61906 189.621 5.66786 190.228 5.90539C190.835 6.14292 191.356 6.55817 191.725 7.09708C192.093 7.63599 192.291 8.27359 192.292 8.92687C192.321 9.75672 192.021 10.5641 191.458 11.1734C190.896 11.7826 190.116 12.1444 189.288 12.1799ZM189.288 5.96659C188.697 5.90889 188.103 6.03171 187.582 6.31894C187.062 6.60616 186.64 7.04438 186.373 7.5761C186.105 8.10781 186.005 8.70819 186.083 9.29846C186.162 9.88874 186.417 10.4413 186.815 10.8838C187.212 11.3262 187.734 11.6378 188.311 11.7776C188.889 11.9175 189.495 11.8791 190.05 11.6675C190.605 11.4559 191.083 11.0809 191.422 10.5918C191.761 10.1028 191.945 9.52239 191.949 8.92687C191.982 8.18383 191.721 7.45763 191.223 6.90671C190.725 6.3558 190.029 6.02486 189.288 5.98612V5.96659Z" fill="white"/>
<path d="M192.351 9.36292C191.84 10.6142 191.161 11.7897 190.333 12.8567C190.609 13.0617 190.926 13.204 191.262 13.2737C191.598 13.3434 191.945 13.3387 192.28 13.2601L192.351 9.36292Z" fill="#ED847E"/>
<path d="M197.496 8.00304C197.453 8.01239 197.408 8.00941 197.367 7.99445C197.326 7.97949 197.289 7.95315 197.262 7.91846C197.08 7.67428 196.842 7.47645 196.57 7.34086C196.297 7.20527 195.996 7.13569 195.692 7.13772C195.66 7.14028 195.629 7.1366 195.599 7.12687C195.569 7.11714 195.541 7.10156 195.517 7.08101C195.492 7.06047 195.473 7.03537 195.458 7.00715C195.444 6.97892 195.435 6.94813 195.432 6.91652C195.43 6.8849 195.434 6.85309 195.443 6.8229C195.453 6.79272 195.468 6.76474 195.489 6.74058C195.509 6.71641 195.534 6.69653 195.563 6.68206C195.591 6.66759 195.622 6.65883 195.653 6.65627C196.036 6.64522 196.416 6.72628 196.762 6.89266C197.107 7.05905 197.408 7.30593 197.639 7.61267C197.678 7.66376 197.697 7.72856 197.69 7.79308C197.682 7.8576 197.65 7.91666 197.6 7.95749C197.568 7.97918 197.533 7.99464 197.496 8.00304Z" fill="#263238"/>
<path d="M193.765 15.4329C194.361 15.4415 194.949 15.3072 195.482 15.0412C196.015 14.7752 196.476 14.3853 196.828 13.904C196.847 13.8746 196.853 13.839 196.846 13.8048C196.839 13.7707 196.818 13.7408 196.789 13.7218C196.775 13.7124 196.758 13.706 196.741 13.7029C196.724 13.6997 196.707 13.7 196.69 13.7036C196.656 13.7109 196.626 13.7315 196.607 13.7608C196.277 14.2026 195.847 14.5604 195.354 14.8056C194.86 15.0507 194.316 15.1765 193.765 15.1727C193.748 15.1727 193.732 15.176 193.716 15.1826C193.7 15.1891 193.686 15.1987 193.674 15.2108C193.662 15.2229 193.652 15.2372 193.646 15.253C193.639 15.2688 193.636 15.2857 193.636 15.3028C193.636 15.3199 193.639 15.3368 193.646 15.3526C193.652 15.3684 193.662 15.3827 193.674 15.3948C193.686 15.4069 193.7 15.4165 193.716 15.423C193.732 15.4296 193.748 15.4329 193.765 15.4329V15.4329Z" fill="#263238"/>
<path d="M188.315 8.02257C188.263 8.0229 188.211 8.00944 188.166 7.98354C188.113 7.94882 188.075 7.895 188.061 7.83324C188.046 7.77147 188.056 7.70648 188.088 7.65172C188.283 7.31902 188.556 7.03836 188.882 6.8334C189.209 6.62844 189.579 6.50522 189.963 6.47412C190.027 6.4741 190.089 6.49925 190.135 6.54421C190.181 6.58918 190.208 6.65041 190.21 6.71484C190.208 6.77881 190.183 6.83984 190.138 6.88568C190.093 6.93153 190.033 6.95882 189.97 6.96208C189.668 6.98969 189.377 7.08983 189.121 7.25404C188.866 7.41825 188.654 7.64169 188.503 7.90546C188.483 7.93801 188.455 7.96546 188.423 7.98575C188.39 8.00604 188.353 8.01864 188.315 8.02257Z" fill="#263238"/>
<path d="M202.226 189.926C201.877 189.953 201.53 189.861 201.239 189.666C201.148 189.587 201.077 189.486 201.034 189.372C200.991 189.258 200.977 189.136 200.993 189.015C200.991 188.946 201.009 188.877 201.045 188.817C201.081 188.757 201.132 188.709 201.194 188.677C201.765 188.384 203.407 189.399 203.595 189.516C203.614 189.529 203.629 189.546 203.638 189.567C203.647 189.588 203.65 189.611 203.647 189.633C203.644 189.658 203.634 189.682 203.618 189.7C203.602 189.719 203.58 189.732 203.556 189.738C203.121 189.85 202.675 189.913 202.226 189.926V189.926ZM201.467 188.866C201.413 188.861 201.358 188.873 201.311 188.898C201.272 188.898 201.239 188.944 201.233 189.041C201.222 189.122 201.231 189.204 201.259 189.28C201.287 189.356 201.334 189.424 201.395 189.477C201.965 189.738 202.612 189.77 203.205 189.568C202.676 189.225 202.086 188.986 201.467 188.866V188.866Z" fill="#5E0064"/>
<path d="M203.562 189.744H203.504C202.978 189.458 201.953 188.332 202.063 187.792C202.081 187.703 202.129 187.623 202.199 187.565C202.268 187.507 202.356 187.475 202.446 187.473C202.539 187.46 202.633 187.468 202.723 187.494C202.812 187.521 202.895 187.567 202.965 187.63C203.556 188.111 203.679 189.581 203.679 189.653C203.682 189.674 203.679 189.696 203.67 189.716C203.66 189.736 203.646 189.752 203.627 189.763C203.604 189.763 203.582 189.756 203.562 189.744V189.744ZM202.531 187.669H202.479C202.323 187.669 202.303 187.76 202.303 187.792C202.239 188.124 202.887 188.976 203.413 189.373C203.379 188.791 203.168 188.232 202.81 187.773C202.723 187.698 202.612 187.661 202.498 187.669H202.531Z" fill="#5E0064"/>
<path d="M167.74 184.969C166.903 184.91 165.443 184.715 165.035 184.084C164.969 183.99 164.928 183.881 164.918 183.766C164.908 183.652 164.928 183.537 164.976 183.433C164.995 183.37 165.03 183.312 165.078 183.266C165.126 183.221 165.185 183.189 165.249 183.173C165.937 183.017 167.643 184.559 167.844 184.734C167.862 184.749 167.876 184.769 167.883 184.792C167.89 184.814 167.89 184.838 167.883 184.861C167.876 184.883 167.862 184.903 167.843 184.918C167.825 184.932 167.803 184.941 167.779 184.943L167.74 184.969ZM165.314 183.433H165.281C165.255 183.44 165.232 183.454 165.213 183.474C165.195 183.493 165.183 183.517 165.177 183.544C165.149 183.61 165.137 183.681 165.142 183.753C165.148 183.824 165.171 183.893 165.21 183.954C165.443 184.305 166.235 184.604 167.37 184.695C166.689 184.103 165.716 183.388 165.314 183.433V183.433Z" fill="#5E0064"/>
<path d="M167.74 184.969C167.726 184.975 167.711 184.978 167.695 184.978C167.679 184.978 167.664 184.975 167.65 184.969C167.13 184.539 166.242 183.147 166.488 182.613C166.547 182.49 166.683 182.353 167.014 182.405C167.133 182.426 167.246 182.471 167.348 182.537C167.449 182.603 167.536 182.689 167.604 182.789C168.084 183.472 167.851 184.838 167.844 184.897C167.841 184.918 167.832 184.938 167.819 184.954C167.805 184.97 167.787 184.982 167.766 184.988L167.74 184.969ZM166.832 182.613C166.735 182.613 166.715 182.672 166.709 182.691C166.56 183.01 167.13 184.064 167.637 184.598C167.736 184.021 167.654 183.428 167.403 182.9C167.353 182.826 167.289 182.763 167.215 182.714C167.14 182.666 167.056 182.634 166.968 182.62C166.922 182.62 166.876 182.627 166.832 182.639V182.613Z" fill="#5E0064"/>
<path d="M208.617 69.5116L203.426 70.0321L206.521 74.9572C206.521 74.9572 210.726 73.2981 210.096 70.969L208.617 69.5116Z" fill="#FFC3BD"/>
<path d="M200.014 72.6215L203.206 76.9806L206.547 74.9572L203.452 70.0321L200.014 72.6215Z" fill="#FFC3BD"/>
<path d="M220.757 47.1567C220.289 45.8555 219.757 44.5543 219.193 43.3246C218.771 41.9648 215.203 30.8004 210.94 29.2259C205.444 27.196 203.738 32.2057 206.456 38.0677C207.696 40.5208 209.146 42.861 210.791 45.0617C211.082 45.5367 211.374 46.0116 211.647 46.4931C212.296 47.6772 212.945 48.8808 213.503 50.0974C214.611 52.3623 215.345 54.7925 215.676 57.2932C215.676 57.5729 215.715 57.8462 215.715 58.113V58.3016C215.712 58.3297 215.712 58.3581 215.715 58.3862C215.721 58.4533 215.721 58.5208 215.715 58.5879C215.676 59.0334 215.576 59.4713 215.417 59.8891C214.952 61.0327 214.341 62.1109 213.6 63.0966C211.934 65.3268 210.054 67.3882 207.988 69.2514L210.194 72.4003C212.909 70.8375 215.452 68.9903 217.778 66.8897C219.063 65.7343 220.198 64.423 221.159 62.986C221.734 62.1174 222.171 61.165 222.456 60.1624C222.535 59.8736 222.596 59.5803 222.638 59.284L222.697 58.8156V58.4513C222.735 57.9828 222.742 57.5209 222.748 57.0655C222.644 53.6738 221.971 50.324 220.757 47.1567V47.1567Z" fill="#263238"/>
<path d="M20.6374 88.0213H128.402C129.792 88.0078 131.124 87.4608 132.125 86.4927C133.125 85.5247 133.718 84.2091 133.781 82.8165L136.194 13.904C136.221 13.2288 136.11 12.5552 135.87 11.9238C135.63 11.2925 135.265 10.7163 134.797 10.2301C134.329 9.74381 133.768 9.35751 133.147 9.09442C132.527 8.83132 131.859 8.69686 131.185 8.69912H23.4144C22.0237 8.71109 20.6906 9.25759 19.6899 10.226C18.6891 11.1944 18.097 12.5108 18.0356 13.904L15.622 82.81C15.5957 83.486 15.7061 84.1604 15.9465 84.7926C16.187 85.4248 16.5525 86.0016 17.021 86.4885C17.4896 86.9754 18.0515 87.3621 18.673 87.6255C19.2945 87.889 19.9627 88.0236 20.6374 88.0213V88.0213Z" fill="#5E0064"/>
<path opacity="0.4" d="M20.6374 88.0213H128.402C129.792 88.0078 131.124 87.4608 132.125 86.4927C133.125 85.5247 133.718 84.2091 133.781 82.8165L136.194 13.904C136.221 13.2288 136.11 12.5552 135.87 11.9238C135.63 11.2925 135.265 10.7163 134.797 10.2301C134.329 9.74381 133.768 9.35751 133.147 9.09442C132.527 8.83132 131.859 8.69686 131.185 8.69912H23.4144C22.0237 8.71109 20.6906 9.25759 19.6899 10.226C18.6891 11.1944 18.097 12.5108 18.0356 13.904L15.622 82.81C15.5957 83.486 15.7061 84.1604 15.9465 84.7926C16.187 85.4248 16.5525 86.0016 17.021 86.4885C17.4896 86.9754 18.0515 87.3621 18.673 87.6255C19.2945 87.889 19.9627 88.0236 20.6374 88.0213V88.0213Z" fill="black"/>
<path d="M21.6624 88.0213H129.433C130.823 88.0062 132.154 87.4587 133.155 86.491C134.155 85.5232 134.748 84.2086 134.812 82.8165L137.226 13.904C137.252 13.2283 137.142 12.5542 136.901 11.9223C136.661 11.2905 136.295 10.7141 135.826 10.2277C135.358 9.74138 134.796 9.35522 134.174 9.09252C133.553 8.82981 132.885 8.696 132.21 8.69915H24.4394C23.0499 8.71277 21.7184 9.26001 20.719 10.2282C19.7197 11.1964 19.1285 12.512 19.0671 13.904L16.6535 82.81C16.6263 83.4857 16.7359 84.16 16.9756 84.7921C17.2153 85.4243 17.5802 86.0012 18.0482 86.4882C18.5162 86.9751 19.0778 87.362 19.6989 87.6255C20.3201 87.889 20.988 88.0237 21.6624 88.0213V88.0213Z" fill="#5E0064"/>
<path opacity="0.9" d="M128.402 83.6817C128.951 83.6757 129.476 83.4593 129.871 83.0769C130.265 82.6946 130.499 82.1754 130.524 81.6258L132.84 15.0816C132.854 14.8166 132.814 14.5516 132.723 14.3026C132.631 14.0537 132.49 13.826 132.308 13.6336C132.126 13.4412 131.906 13.288 131.663 13.1835C131.42 13.079 131.158 13.0253 130.893 13.0256H25.4713C24.9232 13.0333 24.3986 13.2502 24.0044 13.6322C23.6102 14.0142 23.376 14.5325 23.3497 15.0816L21.0203 81.6258C21.0062 81.8908 21.0461 82.1558 21.1376 82.4048C21.2291 82.6537 21.3702 82.8814 21.5524 83.0738C21.7346 83.2662 21.954 83.4193 22.1972 83.5239C22.4404 83.6284 22.7023 83.6821 22.9668 83.6817H128.402Z" fill="white"/>
<path opacity="0.3" d="M96.5963 65.673C100.004 61.3683 101.991 56.1064 102.28 50.6179C102.561 45.2854 101.084 40.0084 98.0757 35.6018V35.5238C98.0247 35.4482 97.9683 35.3765 97.907 35.3091C95.6751 32.1558 92.717 29.5895 89.2841 27.8282C85.8512 26.0668 82.045 25.1625 78.189 25.1921C74.2026 25.2226 70.2734 26.1463 66.6889 27.8956C63.1044 29.6449 59.9552 32.1756 57.4718 35.3026C57.4199 35.3611 57.368 35.4132 57.3225 35.4717C57.313 35.494 57.3022 35.5158 57.2901 35.5368C53.8782 39.8422 51.8893 45.1068 51.5998 50.5984C51.3072 55.9494 52.7877 61.2472 55.8108 65.6665C55.8083 65.6859 55.8083 65.7056 55.8108 65.725L55.8692 65.7966C58.0979 68.9787 61.0637 71.5707 64.5118 73.35C67.9599 75.1292 71.7873 76.0424 75.665 76.0111C79.6449 75.9799 83.5677 75.0584 87.1473 73.3138C90.7268 71.5692 93.873 69.0455 96.3563 65.9267C96.416 65.8625 96.4723 65.7952 96.525 65.725C96.5499 65.7092 96.5737 65.6919 96.5963 65.673V65.673ZM75.8337 73.0053C72.2067 73.0053 69.1507 68.7569 67.6 62.4915C70.4945 61.9097 73.4397 61.6198 76.3917 61.6262C79.3161 61.6196 82.2336 61.9117 85.099 62.498C82.9319 68.7829 79.4607 73.0053 75.8402 73.0053H75.8337ZM76.5409 58.5944C73.3379 58.5877 70.1423 58.906 67.0031 59.5442C66.618 57.0938 66.4486 54.6141 66.497 52.1338H87.2272C87.0239 54.6342 86.6115 57.1131 85.9944 59.5442C82.8862 58.9036 79.7206 58.5853 76.5474 58.5944H76.5409ZM54.591 52.1338H63.48C63.4168 54.8578 63.5992 57.5819 64.025 60.2729C61.8123 60.8971 59.677 61.7701 57.6599 62.8754C55.7025 59.6326 54.6451 55.9241 54.5974 52.1338H54.591ZM58.8732 38.3669C60.7977 39.4799 62.8501 40.3539 64.9852 40.9694C64.3011 43.64 63.8517 46.3657 63.6422 49.115H54.7532C55.2078 45.243 56.6244 41.5474 58.8732 38.3669V38.3669ZM78.0462 28.237C81.6732 28.237 84.7227 32.4854 86.2799 38.7508C83.3828 39.329 80.4357 39.6188 77.4817 39.6161C74.5577 39.6212 71.6406 39.3313 68.7744 38.7508C70.9415 32.4854 74.4452 28.237 78.0397 28.237H78.0462ZM77.339 42.6414C80.5421 42.6475 83.7375 42.3292 86.8768 41.6915C87.259 44.1445 87.4284 46.6261 87.3829 49.1085H66.6592C66.8589 46.6055 67.2713 44.1242 67.892 41.6915C70.998 42.3325 74.1615 42.6508 77.3325 42.6414H77.339ZM99.289 49.1085H90.4C90.4601 46.3824 90.2777 43.6564 89.855 40.9629C92.067 40.3366 94.202 39.4636 96.22 38.3604C98.1757 41.6064 99.2328 45.3165 99.2825 49.1085H99.289ZM90.2508 52.1338H99.1398C98.6789 56.0013 97.2603 59.6918 95.0132 62.8689C93.088 61.7573 91.0358 60.8835 88.9012 60.2664C89.5876 57.6007 90.0371 54.8791 90.2443 52.1338H90.2508ZM94.5006 35.9402C92.8261 36.8096 91.0672 37.5051 89.2516 38.0156C88.5812 34.9857 87.3343 32.114 85.5792 29.5577C89.0627 30.8548 92.1395 33.0576 94.4941 35.9402H94.5006ZM70.377 29.5707C68.3907 32.1019 66.8663 34.9652 65.8741 38.0286C64.1245 37.5197 62.4343 36.8239 60.8327 35.9532C63.4512 33.0844 66.7238 30.8944 70.3705 29.5707H70.377ZM59.3923 65.3021C61.0661 64.4343 62.8224 63.7368 64.6349 63.2202C65.3068 66.2495 66.5535 69.121 68.3073 71.6781C64.8223 70.3836 61.7432 68.1831 59.3858 65.3021H59.3923ZM83.5289 71.6651C85.5195 69.1367 87.0443 66.2725 88.0318 63.2072C89.7821 63.7171 91.4724 64.4151 93.0732 65.2891C90.4537 68.1582 87.1783 70.3462 83.5289 71.6651V71.6651Z" fill="#5E0064"/>
<path opacity="0.3" d="M77.4489 10.9763C77.4445 11.0804 77.4613 11.1843 77.4982 11.2816C77.5351 11.379 77.5914 11.4678 77.6636 11.5427C77.7358 11.6176 77.8225 11.6769 77.9183 11.7171C78.0142 11.7573 78.1172 11.7775 78.221 11.7766C78.4347 11.7751 78.6395 11.691 78.793 11.542C78.9464 11.393 79.0367 11.1904 79.045 10.9763C79.0494 10.8722 79.0327 10.7684 78.9958 10.671C78.9589 10.5736 78.9026 10.4848 78.8304 10.4099C78.7581 10.3351 78.6715 10.2757 78.5756 10.2355C78.4798 10.1953 78.3768 10.1751 78.2729 10.1761C78.0593 10.1776 77.8545 10.2616 77.701 10.4106C77.5476 10.5596 77.4573 10.7622 77.4489 10.9763V10.9763Z" fill="white"/>
<path d="M145.239 159.946H37.4616C35.9827 159.875 34.5653 159.332 33.4165 158.396C32.2677 157.459 31.4479 156.179 31.0771 154.741L17.2829 94.2997C16.6341 91.437 18.4313 89.0948 21.2862 89.0948H129.057C130.536 89.1666 131.953 89.7103 133.101 90.6466C134.25 91.583 135.07 92.863 135.442 94.2997L149.236 154.741C149.898 157.604 148.094 159.946 145.239 159.946Z" fill="#5E0064"/>
<path opacity="0.4" d="M145.239 159.946H37.4616C35.9827 159.875 34.5653 159.332 33.4165 158.396C32.2677 157.459 31.4479 156.179 31.0771 154.741L17.2829 94.2997C16.6341 91.437 18.4313 89.0948 21.2862 89.0948H129.057C130.536 89.1666 131.953 89.7103 133.101 90.6466C134.25 91.583 135.07 92.863 135.442 94.2997L149.236 154.741C149.898 157.604 148.094 159.946 145.239 159.946Z" fill="black"/>
<path d="M146.271 159.946H38.4997C37.0205 159.876 35.6025 159.333 34.4536 158.397C33.3046 157.46 32.4851 156.179 32.1152 154.741L18.321 94.2932C17.6722 91.4306 19.4694 89.0884 22.3243 89.0884H130.095C131.574 89.1601 132.991 89.7038 134.139 90.6402C135.288 91.5765 136.108 92.8565 136.48 94.2932L150.274 154.735C150.929 157.604 149.125 159.946 146.271 159.946Z" fill="#5E0064"/>
<path opacity="0.2" d="M32.7965 129.777C32.2128 129.75 31.6532 129.535 31.2001 129.165C30.747 128.795 30.4241 128.289 30.279 127.721L22.9213 95.4577C22.8517 95.2177 22.8397 94.9645 22.8861 94.7189C22.9326 94.4733 23.0362 94.2421 23.1887 94.0443C23.3411 93.8465 23.5379 93.6875 23.7632 93.5804C23.9884 93.4732 24.2358 93.421 24.485 93.4278H129.901C130.485 93.4544 131.045 93.6686 131.498 94.0388C131.951 94.409 132.274 94.9156 132.418 95.4838L139.782 127.721C139.856 127.965 139.871 128.222 139.825 128.472C139.779 128.722 139.674 128.958 139.52 129.159C139.365 129.36 139.164 129.521 138.934 129.629C138.705 129.736 138.453 129.787 138.199 129.777H32.7965Z" fill="black"/>
<path opacity="0.2" d="M76.2295 155.138C75.8889 155.122 75.5624 154.997 75.2976 154.781C75.0327 154.566 74.8432 154.272 74.7566 153.941L70.4678 135.145C70.4255 135.003 70.4174 134.854 70.4442 134.708C70.471 134.563 70.532 134.426 70.622 134.309C70.7121 134.192 70.8286 134.098 70.962 134.035C71.0955 133.973 71.2419 133.943 71.3892 133.948H101.508C101.851 133.96 102.181 134.084 102.449 134.299C102.716 134.515 102.907 134.812 102.994 135.145L107.289 153.941C107.331 154.082 107.339 154.232 107.313 154.377C107.286 154.523 107.225 154.66 107.135 154.777C107.045 154.894 106.928 154.987 106.795 155.05C106.661 155.113 106.515 155.143 106.368 155.138H76.2295Z" fill="black"/>
<path d="M149.21 112.958L152.454 27.2276C152.477 26.6912 152.391 26.1556 152.203 25.653C152.014 25.1504 151.727 24.691 151.357 24.3023C150.988 23.9136 150.544 23.6036 150.053 23.3908C149.561 23.178 149.031 23.0667 148.496 23.0637L93.9942 22.6018C92.8918 22.6023 91.832 23.0283 91.0346 23.7915C90.2373 24.5547 89.7636 25.5965 89.7119 26.7006L86.4677 112.425C86.4441 112.962 86.5289 113.498 86.7169 114.001C86.9049 114.505 87.1922 114.965 87.5618 115.354C87.9313 115.744 88.3754 116.054 88.8675 116.268C89.3596 116.481 89.8896 116.592 90.4256 116.595L144.927 117.057C146.029 117.055 147.088 116.629 147.885 115.866C148.682 115.103 149.156 114.062 149.21 112.958V112.958Z" fill="#5E0064"/>
<path opacity="0.4" d="M149.21 112.958L152.454 27.2276C152.477 26.6912 152.391 26.1556 152.203 25.653C152.014 25.1504 151.727 24.691 151.357 24.3023C150.988 23.9136 150.544 23.6036 150.053 23.3908C149.561 23.178 149.031 23.0667 148.496 23.0637L93.9942 22.6018C92.8918 22.6023 91.832 23.0283 91.0346 23.7915C90.2373 24.5547 89.7636 25.5965 89.7119 26.7006L86.4677 112.425C86.4441 112.962 86.5289 113.498 86.7169 114.001C86.9049 114.505 87.1922 114.965 87.5618 115.354C87.9313 115.744 88.3754 116.054 88.8675 116.268C89.3596 116.481 89.8896 116.592 90.4256 116.595L144.927 117.057C146.029 117.055 147.088 116.629 147.885 115.866C148.682 115.103 149.156 114.062 149.21 112.958V112.958Z" fill="black"/>
<path d="M150.41 112.959L153.686 27.2286C153.708 26.6918 153.622 26.1561 153.433 25.6534C153.244 25.1508 152.955 24.6915 152.585 24.3029C152.216 23.9143 151.771 23.6044 151.279 23.3917C150.787 23.1789 150.258 23.0677 149.722 23.0647L95.2071 22.5897C94.1047 22.5902 93.0449 23.0162 92.2475 23.7794C91.4502 24.5426 90.9765 25.5844 90.9248 26.6886L87.6806 112.413C87.657 112.95 87.7418 113.486 87.9298 113.989C88.1178 114.493 88.4051 114.953 88.7747 115.342C89.1442 115.732 89.5883 116.042 90.0804 116.256C90.5725 116.469 91.1024 116.58 91.6385 116.583L146.14 117.045C147.238 117.041 148.293 116.616 149.087 115.856C149.882 115.095 150.355 114.059 150.41 112.959V112.959Z" fill="#5E0064"/>
<path opacity="0.9" d="M150.216 28.1394C150.225 27.9277 150.191 27.7165 150.116 27.5183C150.041 27.3202 149.928 27.1391 149.782 26.9861C149.636 26.833 149.46 26.711 149.266 26.6275C149.072 26.5439 148.863 26.5005 148.652 26.4998L96.0254 26.0509C95.5905 26.0521 95.1728 26.221 94.8588 26.5226C94.5447 26.8242 94.3584 27.2353 94.3384 27.6709L91.1332 111.515C91.1245 111.727 91.1584 111.938 91.2329 112.137C91.3074 112.335 91.421 112.517 91.5669 112.67C91.7128 112.824 91.888 112.947 92.0821 113.031C92.2763 113.115 92.4853 113.159 92.6969 113.161L145.324 113.603C145.758 113.604 146.176 113.436 146.49 113.136C146.804 112.835 146.991 112.425 147.011 111.99L150.216 28.1394Z" fill="white"/>
<path opacity="0.3" d="M140.243 84.5603C143.404 80.5611 145.248 75.675 145.518 70.5787C145.788 65.6178 144.42 60.7059 141.625 56.6036V56.5386C141.58 56.4646 141.525 56.3968 141.462 56.3369C139.39 53.4213 136.647 51.0493 133.467 49.4219C130.287 47.7945 126.762 46.9595 123.191 46.9876C119.49 47.017 115.842 47.8751 112.513 49.4994C109.185 51.1237 106.26 53.4731 103.953 56.3759C103.905 56.4271 103.859 56.4814 103.817 56.5386L103.785 56.5971C100.594 60.5848 98.7294 65.474 98.4514 70.5787C98.1733 75.5445 99.5421 80.4629 102.344 84.5668C102.347 84.5862 102.347 84.6059 102.344 84.6253L102.403 84.6904C104.478 87.649 107.24 90.0569 110.45 91.7061C113.66 93.3554 117.223 94.1964 120.83 94.1567C124.525 94.129 128.168 93.274 131.491 91.6542C134.815 90.0345 137.736 87.6909 140.041 84.7945C140.099 84.7369 140.153 84.6761 140.204 84.6123L140.243 84.5603ZM120.966 91.3656C117.605 91.3656 114.769 87.4164 113.323 81.6065C116.01 81.0682 118.744 80.7979 121.485 80.7998C124.208 80.792 126.926 81.0601 129.595 81.6C127.558 87.4164 124.333 91.3656 120.966 91.3656ZM121.615 77.9891C118.641 77.9822 115.673 78.2765 112.758 78.8674C112.4 76.5912 112.242 74.2879 112.284 71.984H131.542C131.353 74.3068 130.969 76.6095 130.393 78.8674C127.509 78.2738 124.572 77.9795 121.628 77.9891H121.615ZM101.235 71.984H109.482C109.419 74.5143 109.588 77.0449 109.988 79.5441C107.933 80.1214 105.951 80.9289 104.077 81.9513C102.268 78.9398 101.291 75.4994 101.248 71.984H101.235ZM105.199 59.2061C106.987 60.2375 108.893 61.0459 110.876 61.6133C110.237 64.0935 109.818 66.6256 109.624 69.1799H101.384C101.806 65.5861 103.123 62.1564 105.212 59.2061H105.199ZM122.997 49.7983C126.364 49.7983 129.199 53.7409 130.646 59.5574C127.957 60.0987 125.221 60.369 122.478 60.3641C119.762 60.372 117.054 60.1017 114.393 59.5574C116.424 53.7409 119.642 49.7983 123.01 49.7983H122.997ZM122.348 63.1748C125.325 63.1783 128.295 62.8775 131.211 62.2769C131.566 64.5556 131.722 66.861 131.678 69.1669H112.44C112.624 66.8418 113.006 64.5368 113.582 62.2769C116.467 62.8801 119.407 63.181 122.354 63.1748H122.348ZM142.728 69.1799H134.481C134.537 66.6476 134.368 64.1154 133.975 61.6133C136.03 61.0389 138.013 60.2312 139.886 59.2061C141.702 62.218 142.685 65.6606 142.734 69.1799H142.728ZM134.338 71.984H142.572C142.144 75.5743 140.828 79.0005 138.744 81.9513C136.954 80.924 135.048 80.1158 133.067 79.5441C133.711 77.0662 134.139 74.5365 134.345 71.984H134.338ZM138.283 56.9484C136.729 57.7631 135.096 58.417 133.41 58.9003C132.787 56.0919 131.631 53.4302 130.004 51.0604C133.237 52.2534 136.096 54.2852 138.29 56.9484H138.283ZM115.885 51.0409C114.039 53.3843 112.624 56.0391 111.707 58.8807C110.081 58.4043 108.512 57.7497 107.029 56.9289C109.465 54.2769 112.506 52.2565 115.892 51.0409H115.885ZM105.686 84.2219C107.238 83.4073 108.868 82.7533 110.552 82.2701C111.18 85.078 112.338 87.7392 113.965 90.11C110.735 88.9149 107.88 86.8806 105.692 84.2154L105.686 84.2219ZM128.084 90.1295C129.926 87.7836 131.341 85.1295 132.262 82.2896C133.887 82.7701 135.455 83.4245 136.94 84.2415C134.508 86.8912 131.471 88.9095 128.09 90.123L128.084 90.1295Z" fill="#5E0064"/>
<path opacity="0.3" d="M121.239 25.023C121.411 25.023 121.576 24.9545 121.698 24.8324C121.82 24.7104 121.888 24.545 121.888 24.3724C121.893 24.2889 121.881 24.2051 121.853 24.1264C121.825 24.0476 121.781 23.9755 121.724 23.9145C121.666 23.8535 121.597 23.8049 121.521 23.7718C121.444 23.7386 121.361 23.7216 121.278 23.7218C121.106 23.7218 120.941 23.7903 120.819 23.9124C120.698 24.0344 120.629 24.1999 120.629 24.3724C120.624 24.4559 120.636 24.5397 120.664 24.6184C120.692 24.6972 120.736 24.7693 120.793 24.8303C120.851 24.8913 120.92 24.9399 120.996 24.973C121.073 25.0062 121.156 25.0232 121.239 25.023Z" fill="white"/>
<path d="M165.638 135.939L168.915 68.6528C168.937 68.116 168.852 67.5802 168.664 67.0772C168.475 66.5742 168.188 66.1144 167.819 65.7252C167.449 65.336 167.005 65.0254 166.514 64.8119C166.022 64.5983 165.493 64.4863 164.957 64.4824L133.443 64.027C132.342 64.0274 131.283 64.4525 130.486 65.2143C129.689 65.9762 129.214 67.0163 129.161 68.1193L125.917 135.412C125.894 135.948 125.979 136.484 126.168 136.986C126.356 137.489 126.644 137.948 127.013 138.337C127.383 138.726 127.826 139.036 128.318 139.249C128.81 139.461 129.339 139.573 129.875 139.576L161.388 140.038C162.485 140.029 163.537 139.599 164.327 138.837C165.118 138.074 165.587 137.037 165.638 135.939Z" fill="#5E0064"/>
<path opacity="0.4" d="M165.638 135.939L168.915 68.6528C168.937 68.116 168.852 67.5802 168.664 67.0772C168.475 66.5742 168.188 66.1144 167.819 65.7252C167.449 65.336 167.005 65.0254 166.514 64.8119C166.022 64.5983 165.493 64.4863 164.957 64.4824L133.443 64.027C132.342 64.0274 131.283 64.4525 130.486 65.2143C129.689 65.9762 129.214 67.0163 129.161 68.1193L125.917 135.412C125.894 135.948 125.979 136.484 126.168 136.986C126.356 137.489 126.644 137.948 127.013 138.337C127.383 138.726 127.826 139.036 128.318 139.249C128.81 139.461 129.339 139.573 129.875 139.576L161.388 140.038C162.485 140.029 163.537 139.599 164.327 138.837C165.118 138.074 165.587 137.037 165.638 135.939Z" fill="black"/>
<path d="M166.845 135.939L170.089 68.6528C170.113 68.1158 170.028 67.5795 169.84 67.0762C169.652 66.5728 169.365 66.1126 168.995 65.7232C168.626 65.3338 168.181 65.0232 167.689 64.81C167.197 64.5968 166.667 64.4854 166.131 64.4824L134.617 64.027C133.517 64.0274 132.459 64.4528 131.663 65.2148C130.866 65.9768 130.393 67.0169 130.342 68.1193L127.065 135.412C127.042 135.948 127.128 136.484 127.316 136.986C127.505 137.489 127.792 137.948 128.162 138.337C128.531 138.726 128.975 139.036 129.466 139.249C129.958 139.461 130.487 139.573 131.023 139.576L162.537 140.038C163.643 140.042 164.709 139.619 165.511 138.855C166.314 138.091 166.792 137.047 166.845 135.939V135.939Z" fill="#5E0064"/>
<path opacity="0.9" d="M166.651 69.5636C166.658 69.3519 166.624 69.1408 166.549 68.9427C166.474 68.7445 166.36 68.5634 166.215 68.41C166.069 68.2566 165.894 68.134 165.7 68.0495C165.507 67.9649 165.298 67.9201 165.087 67.9176L135.435 67.4817C135 67.4829 134.583 67.6518 134.269 67.9534C133.955 68.255 133.768 68.6661 133.748 69.1017L130.556 134.494C130.547 134.706 130.581 134.918 130.656 135.116C130.73 135.315 130.844 135.496 130.99 135.65C131.136 135.804 131.311 135.926 131.505 136.01C131.699 136.095 131.908 136.139 132.12 136.14L161.758 136.583C162.193 136.583 162.61 136.416 162.924 136.115C163.239 135.815 163.425 135.404 163.445 134.969L166.651 69.5636Z" fill="white"/>
<path opacity="0.3" d="M159.805 111.073C161.748 108.619 162.882 105.62 163.05 102.491C163.213 99.4444 162.372 96.4285 160.655 93.9095C160.655 93.9095 160.655 93.9095 160.655 93.8704C160.629 93.8266 160.598 93.7852 160.565 93.7468C159.29 91.9573 157.605 90.5017 155.651 89.5029C153.697 88.5042 151.533 87.9916 149.34 88.0085C147.068 88.0258 144.829 88.5525 142.787 89.5499C140.745 90.5473 138.951 91.9902 137.537 93.7729L137.447 93.8704V93.9095C135.501 96.3615 134.366 99.3616 134.202 102.491C134.031 105.54 134.873 108.561 136.597 111.079V111.112C136.597 111.112 136.597 111.112 136.629 111.151C137.901 112.955 139.59 114.423 141.552 115.43C143.513 116.436 145.689 116.95 147.893 116.928C150.16 116.911 152.396 116.386 154.435 115.392C156.475 114.398 158.267 112.96 159.682 111.183C159.72 111.147 159.755 111.108 159.786 111.066L159.805 111.073ZM147.977 115.249C145.907 115.249 144.169 112.829 143.286 109.257C144.935 108.927 146.613 108.762 148.295 108.763C149.962 108.76 151.625 108.926 153.259 109.257C152.019 112.797 150.04 115.217 147.977 115.217V115.249ZM148.379 107.039C146.554 107.035 144.732 107.216 142.942 107.579C142.725 106.182 142.63 104.769 142.657 103.356H154.465C154.353 104.781 154.119 106.194 153.765 107.579C152.005 107.206 150.211 107.014 148.412 107.006L148.379 107.039ZM135.87 103.356H140.937C140.902 104.909 141.006 106.461 141.249 107.995C139.986 108.349 138.767 108.844 137.615 109.472C136.497 107.615 135.895 105.493 135.87 103.324V103.356ZM138.303 95.4579C139.401 96.0883 140.571 96.5841 141.787 96.9348C141.396 98.4575 141.14 100.012 141.022 101.58H135.954C136.214 99.3746 137.022 97.2696 138.303 95.4579V95.4579ZM149.229 89.6805C151.299 89.6805 153.038 92.1008 153.927 95.6726C152.276 96.0055 150.596 96.1711 148.911 96.1671C147.244 96.1731 145.581 96.0074 143.948 95.6726C145.168 92.1203 147.166 89.7 149.229 89.7V89.6805ZM148.827 97.8912C150.653 97.895 152.475 97.7141 154.264 97.3512C154.482 98.7499 154.577 100.165 154.55 101.58H142.741C142.856 100.153 143.09 98.7386 143.442 97.3512C145.213 97.7223 147.018 97.9098 148.827 97.9107V97.8912ZM161.337 101.58H156.269C156.305 100.025 156.201 98.4707 155.958 96.9348C157.221 96.5812 158.439 96.0858 159.591 95.4579C160.708 97.3129 161.31 99.4332 161.337 101.6V101.58ZM156.198 103.324H161.265C161.004 105.527 160.197 107.63 158.916 109.44C157.818 108.809 156.648 108.313 155.432 107.963C155.823 106.442 156.079 104.89 156.198 103.324V103.324ZM158.624 94.0916C157.67 94.5868 156.668 94.9836 155.633 95.2758C155.25 93.5508 154.538 91.9162 153.538 90.4613C155.52 91.1998 157.27 92.4526 158.612 94.0916H158.624ZM144.876 90.4613C143.733 91.899 142.854 93.5292 142.28 95.2758C141.282 94.9876 140.318 94.5905 139.406 94.0916C140.905 92.4559 142.777 91.21 144.863 90.4613H144.876ZM138.615 110.825C139.568 110.332 140.567 109.935 141.599 109.641C141.986 111.365 142.697 112.999 143.695 114.456C141.705 113.723 139.946 112.469 138.602 110.825H138.615ZM152.357 114.456C153.5 113.018 154.379 111.388 154.952 109.641C155.949 109.932 156.913 110.329 157.826 110.825C156.321 112.465 154.439 113.711 152.344 114.456H152.357Z" fill="#5E0064"/>
<path opacity="0.3" d="M137.622 66.5448C137.794 66.5448 137.959 66.4762 138.08 66.3542C138.202 66.2322 138.27 66.0667 138.27 65.8941C138.271 65.7281 138.208 65.5683 138.094 65.4474C137.981 65.3264 137.826 65.2535 137.661 65.2435C137.488 65.2435 137.323 65.3121 137.202 65.4341C137.08 65.5561 137.012 65.7216 137.012 65.8941C137.011 66.0601 137.074 66.22 137.188 66.3409C137.301 66.4619 137.456 66.5348 137.622 66.5448Z" fill="white"/>
</svg>
