<svg width="202" height="161" viewBox="0 0 202 161" fill="none" xmlns="http://www.w3.org/2000/svg">
<path d="M101 160.621C156.255 160.621 201.048 158.006 201.048 154.78C201.048 151.554 156.255 148.939 101 148.939C45.7458 148.939 0.953125 151.554 0.953125 154.78C0.953125 158.006 45.7458 160.621 101 160.621Z" fill="#F5F5F5"/>
<path d="M137.688 147.788L133.776 146.715L135.231 137.365L139.143 138.443L137.688 147.788Z" fill="#FFC3BD"/>
<path d="M166.558 150.389H162.497L161.486 140.992H165.547L166.558 150.389Z" fill="#FFC3BD"/>
<path d="M162.167 149.919H167.11C167.191 149.919 167.269 149.947 167.332 149.998C167.395 150.049 167.438 150.119 167.456 150.198L168.261 153.81C168.28 153.898 168.278 153.989 168.257 154.077C168.235 154.165 168.194 154.246 168.136 154.316C168.079 154.385 168.006 154.441 167.924 154.478C167.842 154.516 167.753 154.534 167.662 154.532C166.073 154.506 164.912 154.408 162.905 154.408C161.672 154.408 157.956 154.537 156.254 154.537C154.551 154.537 154.324 152.855 155.02 152.7C158.147 152.019 160.505 151.075 161.507 150.177C161.687 150.012 161.922 149.92 162.167 149.919Z" fill="#263238"/>
<path d="M133.926 146.266L138.199 147.442C138.276 147.464 138.344 147.512 138.391 147.578C138.438 147.643 138.461 147.723 138.457 147.803L138.271 151.493C138.267 151.582 138.244 151.67 138.201 151.749C138.159 151.827 138.099 151.896 138.026 151.948C137.954 152 137.87 152.035 137.782 152.05C137.694 152.065 137.603 152.06 137.517 152.035C135.969 151.581 133.782 150.879 131.841 150.347C129.576 149.723 127.584 149.315 124.932 148.572C123.327 148.129 123.327 146.384 124.04 146.421C127.285 146.596 129.803 147.215 132.894 146.312C133.227 146.201 133.585 146.185 133.926 146.266Z" fill="#263238"/>
<path opacity="0.2" d="M135.232 137.37L134.479 142.184L138.395 143.263L139.143 138.448L135.232 137.37Z" fill="black"/>
<path opacity="0.2" d="M165.547 140.997H161.486L162.012 145.843H166.068L165.547 140.997Z" fill="black"/>
<path d="M118.059 21.8169L117.708 17.9263L113.9 19.7787C113.9 19.7787 114.901 23.2308 116.79 22.8747L118.059 21.8169Z" fill="#FFC3BD"/>
<path d="M116.852 16.0945L112.559 16.982L113.911 19.7787L117.708 17.9263L116.852 16.0945Z" fill="#FFC3BD"/>
<path d="M143.049 22.4052C141.021 23.2086 139.067 24.1858 137.208 25.3258C136.811 25.5219 136.413 25.7179 136.011 25.9037C135.03 26.3475 134.034 26.7551 133.033 27.106C131.162 27.8169 129.188 28.2195 127.187 28.2979C126.97 28.2979 126.749 28.2979 126.542 28.2721H126.393H126.325C126.272 28.2654 126.218 28.255 126.166 28.2412C125.824 28.1754 125.492 28.0644 125.18 27.9109C124.31 27.4595 123.503 26.8957 122.781 26.2339C121.144 24.7526 119.654 23.1161 118.333 21.3474L115.686 22.8593C116.72 25.1234 117.991 27.2716 119.478 29.268C120.296 30.3688 121.25 31.3622 122.316 32.2247C122.958 32.7449 123.677 33.1626 124.447 33.4631C124.67 33.5442 124.898 33.6131 125.128 33.6695L125.495 33.7521L125.779 33.7985C126.145 33.8656 126.511 33.9069 126.872 33.943C129.551 34.1016 132.237 33.8086 134.819 33.0761C135.892 32.7975 136.934 32.4724 137.961 32.1163C139.066 31.8841 148.147 29.8717 149.7 26.6158C151.708 22.4001 147.879 20.6818 143.049 22.4052Z" fill="#263238"/>
<path opacity="0.2" d="M141.331 31.2443C142.607 30.8793 143.861 30.4417 145.087 29.9336L145.397 26.6106C145.397 26.6106 142.971 27.6013 141.331 31.2443Z" fill="black"/>
<path d="M167.048 22.9934C167.166 23.024 167.277 23.0777 167.375 23.1514C167.473 23.2251 167.555 23.3173 167.616 23.4228C167.678 23.5283 167.719 23.6449 167.735 23.766C167.752 23.8871 167.745 24.0104 167.714 24.1286C166.653 28.2211 165.872 32.3811 165.376 36.5797C164.994 39.7221 164.762 42.7201 164.623 45.4446C164.282 51.8223 164.421 56.683 164.236 58.3446C161.062 58.1278 149.107 57.3126 142.564 56.8378C139.617 33.7572 145.247 21.8685 145.247 21.8685C146.952 21.548 148.675 21.3326 150.407 21.2235C150.773 21.2235 151.145 21.1874 151.527 21.1823C154.605 21.2183 157.678 21.432 160.732 21.8221C161.31 21.8892 161.893 21.9769 162.466 22.0698C164.334 22.3536 166.016 22.7457 167.048 22.9934Z" fill="#263238"/>
<path opacity="0.2" d="M164.122 27.204C163.695 29.9358 164.196 32.7323 165.547 35.1452C165.805 33.2309 166.124 31.2752 166.517 29.2989L164.122 27.204Z" fill="black"/>
<path d="M160.567 11.3783C159.778 14.304 159.019 19.5208 160.526 21.8583C158.901 23.3134 156.966 22.947 155.309 22.689C153.292 22.3743 153.023 21.915 153.663 20.9707C154.06 20.5373 154.133 20.0935 154.509 19.0822C154.814 18.016 154.839 16.8893 154.582 15.8107L160.567 11.3783Z" fill="#FFC3BD"/>
<path d="M153.529 19.722C153.792 21.0481 152.151 21.755 152.631 22.333C153.111 22.9109 157.388 24.366 159.272 23.6797C161.155 22.9934 160.954 22.8232 160.82 21.1616C160.686 19.5001 161.749 18.4165 160.376 18.8603C159.674 19.0873 156.031 18.4888 154.984 18.4888C153.936 18.4888 153.317 18.659 153.529 19.722Z" fill="#263238"/>
<path opacity="0.2" d="M158.126 13.1895L154.582 15.8056C154.688 16.3514 154.745 16.9058 154.752 17.4619C156.026 17.369 157.848 16.1049 158.085 14.7942C158.195 14.2661 158.209 13.7225 158.126 13.1895Z" fill="black"/>
<path d="M152.729 1.63099C151.826 2.04895 150.366 3.99944 151.568 5.28944C152.77 6.57945 154.004 1.04791 152.729 1.63099Z" fill="#263238"/>
<path d="M161.754 7.12126C161.088 11.0945 160.897 13.4526 158.658 15.2947C155.299 18.0605 150.557 15.7075 150.02 11.6156C149.54 7.93654 150.711 2.0593 154.793 0.882823C155.691 0.617004 156.643 0.585531 157.557 0.791395C158.471 0.997259 159.317 1.43361 160.015 2.05892C160.713 2.68424 161.239 3.47771 161.543 4.36382C161.847 5.24993 161.92 6.19919 161.754 7.12126Z" fill="#FFC3BD"/>
<path d="M160.567 9.96957C159.081 9.02529 159.019 7.93137 159.468 6.95097C160.897 3.63825 160.5 1.96125 157.961 2.26569C155.423 2.57013 151.805 2.86426 152.254 1.70326C152.703 0.542258 155.892 0.0520573 158.601 0.371977C161.31 0.691897 164.215 2.79717 163.637 6.10989C163.08 9.27813 162.404 10.176 160.567 9.96957Z" fill="#263238"/>
<path d="M163.178 10.8726C162.672 11.7498 161.839 12.3914 160.862 12.658C159.561 12.9985 158.937 11.8324 159.314 10.594C159.654 9.50521 160.743 8.01397 162.038 8.20489C163.333 8.39581 163.787 9.78902 163.178 10.8726Z" fill="#FFC3BD"/>
<path d="M133.266 140.879L139.886 142.7C139.886 142.7 145.103 116.555 145.428 103.918C145.526 100.074 147.187 95.5276 148.457 89.8206C150.067 82.6327 152.069 74.8566 153.73 68.7678C155.474 62.3539 156.8 57.8183 156.8 57.8183L142.569 56.8224C142.569 56.8224 135.221 90.5739 134.339 102.927C133.415 115.77 133.266 140.879 133.266 140.879Z" fill="#5E0064"/>
<path opacity="0.4" d="M133.266 140.879L139.886 142.7C139.886 142.7 145.103 116.555 145.428 103.918C145.526 100.074 147.187 95.5276 148.457 89.8206C150.067 82.6327 152.069 74.8566 153.73 68.7678C155.474 62.3539 156.8 57.8183 156.8 57.8183L142.569 56.8224C142.569 56.8224 135.221 90.5739 134.339 102.927C133.415 115.77 133.266 140.879 133.266 140.879Z" fill="black"/>
<path opacity="0.2" d="M148.472 89.8205C150.082 82.6326 152.084 74.8565 153.746 68.7677L152.27 65.584C148.725 69.7791 147.776 82.7668 148.472 89.8205Z" fill="black"/>
<path d="M150.247 57.359C150.247 57.359 151.279 89.64 152.972 101.405C154.85 114.305 160.134 144.904 160.134 144.904H167.564C167.564 144.904 167.167 115.75 164.84 103.268C162.187 89.0569 164.215 58.3342 164.215 58.3342L150.247 57.359Z" fill="#5E0064"/>
<path opacity="0.4" d="M150.247 57.359C150.247 57.359 151.279 89.64 152.972 101.405C154.85 114.305 160.134 144.904 160.134 144.904H167.564C167.564 144.904 167.167 115.75 164.84 103.268C162.187 89.0569 164.215 58.3342 164.215 58.3342L150.247 57.359Z" fill="black"/>
<path d="M159.246 145.063H167.998V142.447L158.214 142.277L159.246 145.063Z" fill="#263238"/>
<path d="M132.389 140.801L140.283 142.979L140.985 140.43L132.198 137.865L132.389 140.801Z" fill="#263238"/>
<path d="M156.094 7.34313C156.063 7.66821 155.861 7.91589 155.65 7.89525C155.438 7.87461 155.289 7.59081 155.325 7.26573C155.361 6.94065 155.557 6.69296 155.774 6.7136C155.99 6.73424 156.13 7.01805 156.094 7.34313Z" fill="#263238"/>
<path d="M152.012 7.21412C151.981 7.53919 151.78 7.78688 151.563 7.76108C151.346 7.73528 151.207 7.45664 151.243 7.13156C151.279 6.80648 151.475 6.56396 151.692 6.5846C151.909 6.60524 152.048 6.88904 152.012 7.21412Z" fill="#263238"/>
<path d="M155.805 9.66001C155.288 9.69835 154.772 9.58023 154.323 9.32104C153.874 9.06185 153.514 8.67359 153.289 8.20681C153.064 7.74004 152.985 7.21637 153.062 6.704C153.139 6.19163 153.369 5.71429 153.721 5.33413C154.073 4.95398 154.531 4.68861 155.036 4.57259C155.541 4.45658 156.069 4.49528 156.552 4.68367C157.034 4.87205 157.449 5.20139 157.742 5.6288C158.035 6.05621 158.192 6.5619 158.194 7.08001C158.216 7.73817 157.978 8.37852 157.53 8.86171C157.083 9.3449 156.463 9.63182 155.805 9.66001ZM155.805 4.73221C155.334 4.68849 154.861 4.78811 154.448 5.01799C154.035 5.24787 153.702 5.59727 153.491 6.02028C153.28 6.44329 153.202 6.92014 153.268 7.3882C153.333 7.85627 153.538 8.29365 153.857 8.64292C154.175 8.99219 154.591 9.237 155.051 9.34521C155.512 9.45342 155.994 9.41996 156.434 9.24923C156.875 9.0785 157.254 8.77848 157.521 8.38857C157.788 7.99867 157.931 7.53712 157.931 7.06453C157.953 6.47614 157.742 5.90268 157.344 5.46883C156.946 5.03498 156.393 4.77582 155.805 4.74769V4.73221Z" fill="white"/>
<path d="M150.537 9.66001C150.02 9.69835 149.504 9.58023 149.055 9.32104C148.606 9.06185 148.246 8.67359 148.021 8.20681C147.796 7.74004 147.717 7.21637 147.794 6.704C147.871 6.19163 148.101 5.71429 148.453 5.33413C148.805 4.95398 149.263 4.68861 149.768 4.57259C150.273 4.45658 150.801 4.49528 151.284 4.68367C151.766 4.87205 152.181 5.20139 152.474 5.6288C152.767 6.05621 152.924 6.5619 152.926 7.08001C152.948 7.73817 152.71 8.37852 152.262 8.86171C151.815 9.3449 151.194 9.63182 150.537 9.66001ZM150.537 4.73221C150.066 4.68644 149.593 4.78385 149.18 5.01165C148.766 5.23945 148.431 5.587 148.218 6.00871C148.005 6.43041 147.925 6.90657 147.988 7.37472C148.05 7.84287 148.253 8.28114 148.569 8.63202C148.885 8.98291 149.3 9.23003 149.759 9.34095C150.219 9.45187 150.7 9.42142 151.142 9.25359C151.583 9.08577 151.964 8.7884 152.233 8.40051C152.503 8.01262 152.649 7.55232 152.652 7.08001C152.679 6.4907 152.471 5.91475 152.075 5.47782C151.679 5.04088 151.126 4.77842 150.537 4.74769V4.73221Z" fill="white"/>
<path d="M152.972 7.42578C152.566 8.41818 152.026 9.35044 151.367 10.1967C151.586 10.3593 151.839 10.4722 152.106 10.5274C152.373 10.5827 152.649 10.579 152.915 10.5166L152.972 7.42578Z" fill="#ED847E"/>
<path d="M157.063 6.34724C157.029 6.35465 156.994 6.35229 156.961 6.34043C156.928 6.32856 156.899 6.30767 156.878 6.28015C156.732 6.0865 156.544 5.9296 156.327 5.82206C156.11 5.71452 155.871 5.65934 155.629 5.66095C155.604 5.66298 155.579 5.66006 155.555 5.65234C155.531 5.64462 155.509 5.63227 155.489 5.61598C155.47 5.59969 155.454 5.57978 155.443 5.55739C155.431 5.53501 155.425 5.51058 155.423 5.48551C155.42 5.46044 155.423 5.43521 155.431 5.41127C155.439 5.38733 155.451 5.36514 155.467 5.34598C155.484 5.32681 155.504 5.31104 155.526 5.29957C155.548 5.28809 155.573 5.28114 155.598 5.27911C155.903 5.27035 156.205 5.33463 156.48 5.4666C156.754 5.59856 156.993 5.79436 157.177 6.03764C157.209 6.07815 157.223 6.12955 157.218 6.18072C157.212 6.23189 157.186 6.27873 157.146 6.31111C157.121 6.32831 157.093 6.34058 157.063 6.34724Z" fill="#263238"/>
<path d="M154.097 12.2399C154.57 12.2467 155.038 12.1402 155.462 11.9293C155.885 11.7183 156.253 11.4091 156.532 11.0273C156.547 11.0041 156.553 10.9758 156.547 10.9487C156.541 10.9216 156.525 10.8979 156.501 10.8828C156.49 10.8754 156.477 10.8703 156.464 10.8678C156.45 10.8653 156.436 10.8655 156.423 10.8684C156.396 10.8742 156.372 10.8905 156.357 10.9138C156.094 11.2641 155.753 11.5479 155.36 11.7424C154.968 11.9368 154.535 12.0366 154.097 12.0335C154.083 12.0335 154.07 12.0362 154.057 12.0414C154.045 12.0466 154.033 12.0542 154.024 12.0638C154.014 12.0733 154.007 12.0847 154.001 12.0972C153.996 12.1098 153.994 12.1232 153.994 12.1367C153.994 12.1503 153.996 12.1637 154.001 12.1762C154.007 12.1888 154.014 12.2001 154.024 12.2097C154.033 12.2193 154.045 12.2269 154.057 12.2321C154.07 12.2373 154.083 12.2399 154.097 12.2399Z" fill="#263238"/>
<path d="M149.762 6.36273C149.721 6.36298 149.68 6.35231 149.643 6.33177C149.601 6.30423 149.571 6.26155 149.56 6.21256C149.548 6.16358 149.556 6.11203 149.582 6.0686C149.737 5.80474 149.954 5.58214 150.213 5.41959C150.473 5.25704 150.768 5.15931 151.073 5.13464C151.124 5.13463 151.173 5.15457 151.21 5.19023C151.246 5.2259 151.268 5.27446 151.269 5.32556C151.268 5.3763 151.247 5.42469 151.212 5.46105C151.176 5.49742 151.129 5.51906 151.078 5.52165C150.838 5.54354 150.606 5.62296 150.403 5.7532C150.2 5.88343 150.032 6.06064 149.912 6.26984C149.896 6.29566 149.874 6.31743 149.848 6.33352C149.822 6.34962 149.792 6.3596 149.762 6.36273Z" fill="#263238"/>
<path d="M160.825 150.631C160.548 150.652 160.272 150.58 160.041 150.425C159.968 150.362 159.911 150.282 159.877 150.192C159.843 150.102 159.832 150.004 159.845 149.909C159.843 149.854 159.858 149.799 159.886 149.752C159.914 149.704 159.955 149.666 160.005 149.641C160.459 149.408 161.764 150.213 161.914 150.306C161.929 150.316 161.941 150.33 161.948 150.346C161.956 150.363 161.958 150.381 161.955 150.399C161.953 150.419 161.945 150.437 161.932 150.452C161.919 150.467 161.902 150.477 161.883 150.482C161.537 150.571 161.182 150.621 160.825 150.631ZM160.221 149.79C160.178 149.787 160.135 149.796 160.097 149.816C160.066 149.816 160.041 149.852 160.036 149.929C160.027 149.993 160.034 150.058 160.056 150.119C160.079 150.179 160.116 150.233 160.165 150.275C160.618 150.482 161.133 150.508 161.604 150.347C161.183 150.075 160.714 149.886 160.221 149.79Z" fill="#5E0064"/>
<path d="M161.888 150.487H161.842C161.424 150.26 160.608 149.367 160.696 148.939C160.71 148.868 160.748 148.804 160.804 148.758C160.859 148.712 160.928 148.687 161 148.686C161.074 148.675 161.149 148.681 161.22 148.703C161.292 148.724 161.357 148.76 161.413 148.81C161.883 149.191 161.981 150.358 161.981 150.414C161.983 150.431 161.981 150.449 161.973 150.464C161.966 150.48 161.954 150.493 161.94 150.502C161.921 150.502 161.903 150.497 161.888 150.487ZM161.068 148.841H161.026C160.902 148.841 160.887 148.913 160.887 148.939C160.835 149.202 161.351 149.878 161.769 150.193C161.742 149.73 161.575 149.288 161.289 148.923C161.221 148.864 161.132 148.835 161.042 148.841H161.068Z" fill="#5E0064"/>
<path d="M133.4 146.699C132.734 146.653 131.573 146.498 131.248 145.998C131.196 145.923 131.164 145.836 131.155 145.746C131.147 145.655 131.163 145.564 131.202 145.482C131.216 145.431 131.244 145.386 131.282 145.349C131.32 145.313 131.367 145.288 131.418 145.275C131.965 145.151 133.322 146.374 133.482 146.514C133.497 146.525 133.508 146.541 133.513 146.559C133.519 146.577 133.518 146.596 133.513 146.614C133.507 146.632 133.497 146.647 133.482 146.659C133.467 146.67 133.449 146.677 133.431 146.679L133.4 146.699ZM131.47 145.482H131.444C131.424 145.487 131.405 145.498 131.39 145.514C131.376 145.529 131.366 145.548 131.362 145.569C131.339 145.621 131.329 145.678 131.334 145.735C131.338 145.792 131.357 145.846 131.387 145.894C131.573 146.173 132.203 146.41 133.106 146.483C132.564 146.013 131.79 145.445 131.47 145.482Z" fill="#5E0064"/>
<path d="M133.4 146.699C133.388 146.704 133.376 146.707 133.364 146.707C133.351 146.707 133.339 146.704 133.327 146.699C132.915 146.359 132.208 145.254 132.404 144.831C132.45 144.733 132.559 144.625 132.822 144.666C132.916 144.683 133.007 144.718 133.087 144.771C133.168 144.823 133.237 144.891 133.291 144.971C133.673 145.512 133.487 146.596 133.482 146.643C133.48 146.659 133.473 146.675 133.462 146.688C133.451 146.701 133.436 146.71 133.42 146.715L133.4 146.699ZM132.677 144.831C132.6 144.831 132.584 144.878 132.579 144.893C132.461 145.146 132.915 145.982 133.317 146.405C133.396 145.948 133.331 145.477 133.131 145.058C133.092 145 133.041 144.95 132.982 144.912C132.922 144.873 132.855 144.848 132.786 144.837C132.749 144.837 132.713 144.842 132.677 144.852V144.831Z" fill="#5E0064"/>
<path d="M165.908 55.1299L161.78 55.5427L164.241 59.4488C164.241 59.4488 167.585 58.133 167.084 56.2857L165.908 55.1299Z" fill="#FFC3BD"/>
<path d="M159.066 57.5964L161.605 61.0536L164.262 59.4488L161.801 55.5427L159.066 57.5964Z" fill="#FFC3BD"/>
<path d="M175.562 37.4001C175.191 36.3681 174.768 35.3361 174.319 34.3609C173.983 33.2825 171.145 24.4279 167.755 23.1792C163.385 21.5693 162.028 25.5425 164.19 30.1916C165.175 32.1372 166.329 33.9932 167.636 35.7386C167.869 36.1153 168.101 36.492 168.318 36.8738C168.834 37.8129 169.35 38.7675 169.793 39.7325C170.674 41.5287 171.258 43.4561 171.522 45.4394C171.522 45.6613 171.553 45.878 171.553 46.0896V46.2392C171.55 46.2615 171.55 46.284 171.553 46.3063C171.557 46.3595 171.557 46.413 171.553 46.4663C171.522 46.8196 171.442 47.1669 171.316 47.4983C170.946 48.4052 170.461 49.2603 169.871 50.0421C168.546 51.8109 167.051 53.4458 165.407 54.9235L167.162 57.4209C169.321 56.1815 171.343 54.7164 173.194 53.0504C174.215 52.1341 175.118 51.0941 175.882 49.9544C176.339 49.2655 176.688 48.5101 176.914 47.715C176.977 47.486 177.025 47.2533 177.059 47.0184L177.105 46.6469V46.3579C177.136 45.9864 177.141 45.62 177.146 45.2588C177.063 42.5689 176.528 39.9121 175.562 37.4001Z" fill="#263238"/>
<path d="M16.4126 69.81H102.115C103.221 69.7993 104.28 69.3655 105.076 68.5977C105.871 67.8299 106.343 66.7865 106.393 65.682L108.312 11.0273C108.333 10.4918 108.245 9.9576 108.054 9.45684C107.864 8.95609 107.573 8.49914 107.201 8.1135C106.829 7.72786 106.383 7.42148 105.889 7.21282C105.395 7.00416 104.865 6.89752 104.329 6.89931H18.6211C17.5151 6.90881 16.4549 7.34224 15.659 8.11026C14.8632 8.87829 14.3923 9.92238 14.3434 11.0273L12.4239 65.6769C12.403 66.2131 12.4908 66.7479 12.682 67.2493C12.8733 67.7507 13.1639 68.2082 13.5365 68.5943C13.9092 68.9805 14.3561 69.2872 14.8503 69.4961C15.3446 69.7051 15.876 69.8118 16.4126 69.81Z" fill="#5E0064"/>
<path opacity="0.4" d="M16.4126 69.81H102.115C103.221 69.7993 104.28 69.3655 105.076 68.5977C105.871 67.8299 106.343 66.7865 106.393 65.682L108.312 11.0273C108.333 10.4918 108.245 9.9576 108.054 9.45684C107.864 8.95609 107.573 8.49914 107.201 8.1135C106.829 7.72786 106.383 7.42148 105.889 7.21282C105.395 7.00416 104.865 6.89752 104.329 6.89931H18.6211C17.5151 6.90881 16.4549 7.34224 15.659 8.11026C14.8632 8.87829 14.3923 9.92238 14.3434 11.0273L12.4239 65.6769C12.403 66.2131 12.4908 66.7479 12.682 67.2493C12.8733 67.7507 13.1639 68.2082 13.5365 68.5943C13.9092 68.9805 14.3561 69.2872 14.8503 69.4961C15.3446 69.7051 15.876 69.8118 16.4126 69.81Z" fill="black"/>
<path d="M17.228 69.81H102.936C104.041 69.7981 105.1 69.3638 105.895 68.5963C106.69 67.8288 107.162 66.7861 107.213 65.682L109.133 11.0273C109.154 10.4914 109.066 9.95675 108.875 9.45565C108.683 8.95455 108.393 8.49736 108.02 8.11165C107.647 7.72593 107.2 7.41967 106.706 7.21132C106.212 7.00296 105.68 6.89684 105.144 6.89934H19.4364C18.3314 6.91014 17.2725 7.34416 16.4777 8.11205C15.6829 8.87994 15.2128 9.92328 15.164 11.0273L13.2444 65.6769C13.2228 66.2128 13.31 66.7476 13.5006 67.249C13.6912 67.7503 13.9814 68.2079 14.3536 68.5941C14.7258 68.9803 15.1724 69.2871 15.6664 69.4961C16.1604 69.7051 16.6916 69.8119 17.228 69.81Z" fill="#5E0064"/>
<path opacity="0.9" d="M102.115 66.3683C102.551 66.3635 102.969 66.1918 103.283 65.8886C103.597 65.5854 103.783 65.1736 103.802 64.7377L105.644 11.9613C105.656 11.7511 105.624 11.5409 105.551 11.3435C105.478 11.146 105.366 10.9655 105.221 10.8129C105.076 10.6603 104.902 10.5388 104.709 10.4559C104.515 10.373 104.307 10.3304 104.096 10.3307H20.2568C19.8209 10.3368 19.4037 10.5088 19.0902 10.8117C18.7767 11.1147 18.5905 11.5258 18.5695 11.9613L16.717 64.7377C16.7058 64.9479 16.7376 65.1581 16.8103 65.3555C16.8831 65.553 16.9953 65.7335 17.1402 65.8861C17.2851 66.0387 17.4595 66.1602 17.6529 66.2431C17.8463 66.326 18.0546 66.3686 18.265 66.3683H102.115Z" fill="white"/>
<path opacity="0.3" d="M76.8204 52.0854C79.5306 48.6714 81.1104 44.4981 81.3405 40.1452C81.564 35.916 80.389 31.7308 77.9968 28.2359V28.174C77.9563 28.1141 77.9115 28.0572 77.8627 28.0037C76.0877 25.5029 73.7352 23.4675 71.0051 22.0706C68.275 20.6737 65.2481 19.9565 62.1814 19.9799C59.0112 20.0041 55.8864 20.7367 53.0357 22.1241C50.1851 23.5114 47.6806 25.5186 45.7056 27.9986C45.6643 28.045 45.623 28.0863 45.5869 28.1327C45.5793 28.1504 45.5707 28.1677 45.5611 28.1843C42.8477 31.599 41.2659 35.7744 41.0358 40.1297C40.803 44.3736 41.9804 48.5753 44.3846 52.0803C44.3827 52.0957 44.3827 52.1113 44.3846 52.1267L44.431 52.1835C46.2035 54.7073 48.5621 56.763 51.3043 58.1741C54.0465 59.5852 57.0903 60.3095 60.1742 60.2847C63.3393 60.2599 66.459 59.5291 69.3057 58.1454C72.1525 56.7618 74.6546 54.7602 76.6294 52.2867C76.6769 52.2357 76.7217 52.1823 76.7636 52.1267C76.7834 52.1142 76.8024 52.1004 76.8204 52.0854ZM60.3084 57.9008C57.4239 57.9008 54.9936 54.5313 53.7603 49.5622C56.0622 49.1008 58.4045 48.8709 60.7521 48.8759C63.0779 48.8707 65.3981 49.1024 67.6768 49.5674C65.9534 54.5519 63.1928 57.9008 60.3135 57.9008H60.3084ZM60.8708 46.4714C58.3235 46.4661 55.7821 46.7185 53.2856 47.2247C52.9793 45.2812 52.8446 43.3146 52.8831 41.3475H69.3693C69.2076 43.3306 68.8797 45.2965 68.3889 47.2247C65.9171 46.7166 63.3995 46.4642 60.876 46.4714H60.8708ZM43.4145 41.3475H50.4837C50.4335 43.5079 50.5786 45.6684 50.9172 47.8026C49.1574 48.2977 47.4593 48.9901 45.8552 49.8666C44.2985 47.2948 43.4576 44.3535 43.4197 41.3475H43.4145ZM46.8201 30.4289C48.3506 31.3117 49.9828 32.0048 51.6808 32.4929C51.1368 34.611 50.7794 36.7727 50.6127 38.9533H43.5435C43.9051 35.8824 45.0317 32.9514 46.8201 30.4289ZM62.0679 22.3948C64.9524 22.3948 67.3776 25.7643 68.616 30.7334C66.3119 31.1919 63.9682 31.4218 61.619 31.4196C59.2936 31.4237 56.9737 31.1938 54.6943 30.7334C56.4177 25.7643 59.2041 22.3948 62.0628 22.3948H62.0679ZM61.5055 33.8191C64.0528 33.8238 66.5941 33.5714 69.0907 33.0657C69.3946 35.0112 69.5293 36.9793 69.4932 38.9481H53.0121C53.1709 36.963 53.4989 34.995 53.9925 33.0657C56.4626 33.574 58.9785 33.8265 61.5003 33.8191H61.5055ZM78.9618 38.9481H71.8926C71.9404 36.786 71.7953 34.624 71.4591 32.4878C73.2183 31.991 74.9162 31.2987 76.5211 30.4238C78.0764 32.9981 78.9171 35.9406 78.9566 38.9481H78.9618ZM71.7739 41.3475H78.8431C78.4766 44.4148 77.3484 47.3417 75.5613 49.8615C74.0303 48.9799 72.3982 48.2869 70.7006 47.7975C71.2465 45.6833 71.6039 43.5248 71.7687 41.3475H71.7739ZM75.1537 28.5042C73.822 29.1938 72.4232 29.7454 70.9792 30.1503C70.4461 27.7473 69.4545 25.4697 68.0587 23.4423C70.8291 24.471 73.276 26.218 75.1485 28.5042H75.1537ZM55.9688 23.4526C54.3891 25.4601 53.1768 27.731 52.3878 30.1606C50.9963 29.757 49.6521 29.2051 48.3784 28.5146C50.4608 26.2393 53.0635 24.5025 55.9636 23.4526H55.9688ZM47.2329 51.7913C48.564 51.103 49.9608 50.5499 51.4022 50.1401C51.9365 52.5427 52.9281 54.8201 54.3228 56.8481C51.5512 55.8214 49.1025 54.0762 47.2278 51.7913H47.2329ZM66.4281 56.8378C68.0112 54.8326 69.2239 52.561 70.0092 50.1298C71.4012 50.5342 72.7454 51.0878 74.0185 51.781C71.9353 54.0565 69.3305 55.7918 66.4281 56.8378Z" fill="#5E0064"/>
<path opacity="0.3" d="M61.5933 8.70539C61.5898 8.78793 61.6031 8.87032 61.6325 8.94755C61.6618 9.02477 61.7066 9.09522 61.7641 9.15459C61.8215 9.21397 61.8904 9.26103 61.9666 9.29291C62.0428 9.3248 62.1248 9.34085 62.2074 9.34008C62.3773 9.33888 62.5402 9.27225 62.6622 9.15405C62.7842 9.03585 62.856 8.87516 62.8627 8.70539C62.8662 8.62285 62.8528 8.54046 62.8235 8.46323C62.7941 8.38601 62.7494 8.31557 62.6919 8.25619C62.6345 8.19682 62.5656 8.14976 62.4894 8.11787C62.4132 8.08598 62.3312 8.06993 62.2486 8.07071C62.0787 8.0719 61.9158 8.13853 61.7938 8.25673C61.6718 8.37493 61.6 8.53561 61.5933 8.70539Z" fill="white"/>
<path d="M115.505 126.854H29.7926C28.6165 126.798 27.4893 126.367 26.5757 125.624C25.6621 124.881 25.0101 123.866 24.7152 122.726L13.745 74.7895C13.229 72.5191 14.6584 70.6615 16.9288 70.6615H102.636C103.812 70.7184 104.939 71.1496 105.853 71.8922C106.766 72.6349 107.418 73.65 107.714 74.7895L118.684 122.726C119.21 124.996 117.776 126.854 115.505 126.854Z" fill="#5E0064"/>
<path opacity="0.4" d="M115.505 126.854H29.7926C28.6165 126.798 27.4893 126.367 26.5757 125.624C25.6621 124.881 25.0101 123.866 24.7152 122.726L13.745 74.7895C13.229 72.5191 14.6584 70.6615 16.9288 70.6615H102.636C103.812 70.7184 104.939 71.1496 105.853 71.8922C106.766 72.6349 107.418 73.65 107.714 74.7895L118.684 122.726C119.21 124.996 117.776 126.854 115.505 126.854Z" fill="black"/>
<path d="M116.325 126.854H30.6178C29.4415 126.799 28.3138 126.368 27.4001 125.625C26.4863 124.882 25.8346 123.866 25.5404 122.726L14.5702 74.7844C14.0542 72.514 15.4835 70.6564 17.7539 70.6564H103.462C104.637 70.7133 105.764 71.1445 106.678 71.8871C107.591 72.6297 108.243 73.6449 108.539 74.7844L119.509 122.721C120.03 124.996 118.596 126.854 116.325 126.854Z" fill="#5E0064"/>
<path opacity="0.2" d="M26.0822 102.927C25.618 102.905 25.173 102.735 24.8127 102.441C24.4523 102.148 24.1956 101.747 24.0802 101.296L18.2287 75.7079C18.1734 75.5175 18.1638 75.3167 18.2008 75.1219C18.2377 74.9271 18.3201 74.7438 18.4414 74.5869C18.5626 74.43 18.7191 74.3039 18.8983 74.219C19.0774 74.134 19.2741 74.0926 19.4723 74.098H103.307C103.771 74.1191 104.217 74.289 104.577 74.5826C104.938 74.8762 105.194 75.278 105.309 75.7286L111.166 101.296C111.224 101.489 111.236 101.693 111.199 101.892C111.163 102.09 111.08 102.277 110.956 102.436C110.833 102.596 110.674 102.724 110.491 102.809C110.308 102.894 110.108 102.935 109.906 102.927H26.0822Z" fill="black"/>
<path opacity="0.2" d="M60.623 123.041C60.3521 123.028 60.0925 122.928 59.8818 122.758C59.6712 122.587 59.5205 122.353 59.4516 122.091L56.0409 107.184C56.0072 107.072 56.0008 106.953 56.0221 106.838C56.0434 106.722 56.0919 106.614 56.1635 106.521C56.2351 106.428 56.3278 106.354 56.4339 106.304C56.54 106.254 56.6564 106.23 56.7736 106.234H80.7263C80.9992 106.245 81.2615 106.342 81.4744 106.513C81.6873 106.684 81.8393 106.92 81.908 107.184L85.3239 122.091C85.3576 122.203 85.364 122.322 85.3427 122.437C85.3214 122.553 85.2729 122.661 85.2013 122.754C85.1296 122.847 85.0369 122.921 84.9308 122.971C84.8247 123.021 84.7083 123.045 84.5912 123.041H60.623Z" fill="black"/>
<path d="M118.663 89.588L121.243 21.5947C121.261 21.1692 121.193 20.7444 121.043 20.3458C120.893 19.9472 120.665 19.5828 120.371 19.2746C120.077 18.9663 119.724 18.7204 119.333 18.5517C118.942 18.3829 118.521 18.2947 118.095 18.2923L74.7514 17.9259C73.8747 17.9263 73.0319 18.2642 72.3977 18.8695C71.7636 19.4748 71.3869 20.301 71.3458 21.1767L68.7658 89.1648C68.747 89.5907 68.8144 90.0161 68.9639 90.4153C69.1134 90.8145 69.342 91.1795 69.6358 91.4883C69.9297 91.7971 70.2829 92.0435 70.6743 92.2126C71.0656 92.3817 71.4871 92.47 71.9134 92.4724L115.257 92.8388C116.134 92.8372 116.976 92.4988 117.61 91.8938C118.243 91.2887 118.621 90.4632 118.663 89.588Z" fill="#5E0064"/>
<path opacity="0.4" d="M118.663 89.588L121.243 21.5947C121.261 21.1692 121.193 20.7444 121.043 20.3458C120.893 19.9472 120.665 19.5828 120.371 19.2746C120.077 18.9663 119.724 18.7204 119.333 18.5517C118.942 18.3829 118.521 18.2947 118.095 18.2923L74.7514 17.9259C73.8747 17.9263 73.0319 18.2642 72.3977 18.8695C71.7636 19.4748 71.3869 20.301 71.3458 21.1767L68.7658 89.1648C68.747 89.5907 68.8144 90.0161 68.9639 90.4153C69.1134 90.8145 69.342 91.1795 69.6358 91.4883C69.9297 91.7971 70.2829 92.0435 70.6743 92.2126C71.0656 92.3817 71.4871 92.47 71.9134 92.4724L115.257 92.8388C116.134 92.8372 116.976 92.4988 117.61 91.8938C118.243 91.2887 118.621 90.4632 118.663 89.588Z" fill="black"/>
<path d="M119.617 89.5884L122.223 21.5951C122.241 21.1694 122.172 20.7445 122.022 20.3458C121.871 19.9472 121.642 19.5829 121.348 19.2747C121.054 18.9665 120.7 18.7207 120.309 18.552C119.918 18.3833 119.497 18.2951 119.071 18.2927L75.7162 17.916C74.8396 17.9164 73.9967 18.2543 73.3626 18.8596C72.7284 19.4649 72.3517 20.2911 72.3106 21.1668L69.7306 89.155C69.7119 89.5809 69.7792 90.0062 69.9288 90.4054C70.0783 90.8047 70.3068 91.1696 70.6007 91.4785C70.8946 91.7873 71.2478 92.0336 71.6391 92.2027C72.0305 92.3718 72.4519 92.4602 72.8782 92.4625L116.222 92.8289C117.095 92.826 117.934 92.4884 118.566 91.8855C119.198 91.2827 119.574 90.4605 119.617 89.5884Z" fill="#5E0064"/>
<path opacity="0.9" d="M119.463 22.3175C119.47 22.1496 119.443 21.9821 119.383 21.825C119.324 21.6678 119.234 21.5242 119.117 21.4028C119.001 21.2814 118.862 21.1847 118.708 21.1184C118.553 21.0522 118.387 21.0177 118.219 21.0172L76.3663 20.6611C76.0205 20.6621 75.6883 20.796 75.4385 21.0352C75.1888 21.2744 75.0406 21.6005 75.0247 21.946L72.4757 88.4429C72.4687 88.611 72.4957 88.7787 72.555 88.9362C72.6142 89.0936 72.7046 89.2376 72.8206 89.3594C72.9366 89.4812 73.076 89.5784 73.2304 89.6452C73.3848 89.7121 73.551 89.7471 73.7192 89.7484L115.572 90.0993C115.917 90.0996 116.25 89.9668 116.499 89.7284C116.749 89.4901 116.898 89.1646 116.914 88.8196L119.463 22.3175Z" fill="white"/>
<path opacity="0.3" d="M111.532 67.065C114.047 63.8932 115.513 60.0181 115.727 55.9762C115.942 52.0417 114.854 48.1461 112.631 44.8925V44.8409C112.595 44.7822 112.552 44.7285 112.502 44.681C110.854 42.3686 108.673 40.4874 106.144 39.1967C103.614 37.906 100.811 37.2437 97.9717 37.266C95.028 37.2893 92.1267 37.9699 89.4797 39.2582C86.8327 40.5464 84.5069 42.4097 82.6723 44.7119C82.6335 44.7525 82.5973 44.7956 82.564 44.8409L82.5382 44.8874C80.001 48.05 78.5177 51.9277 78.2967 55.9762C78.0755 59.9146 79.1641 63.8154 81.3927 67.0702C81.3946 67.0856 81.3946 67.1012 81.3927 67.1166L81.4391 67.1682C83.0893 69.5148 85.2857 71.4244 87.8388 72.7325C90.3919 74.0405 93.225 74.7075 96.0935 74.676C99.0324 74.654 101.929 73.9759 104.573 72.6913C107.216 71.4067 109.539 69.5479 111.372 67.2508C111.418 67.2051 111.461 67.1569 111.501 67.1063L111.532 67.065ZM96.2019 72.4624C93.529 72.4624 91.2741 69.3303 90.1234 64.7224C92.2607 64.2954 94.4351 64.0811 96.6147 64.0826C98.7805 64.0764 100.942 64.289 103.065 64.7172C101.444 69.3303 98.8799 72.4624 96.2019 72.4624ZM96.7179 61.8534C94.3526 61.848 91.9928 62.0814 89.6745 62.55C89.3899 60.7448 89.2639 58.918 89.2978 57.0908H104.613C104.462 58.933 104.157 60.7592 103.699 62.55C101.406 62.0792 99.0696 61.8458 96.7282 61.8534H96.7179ZM80.5103 57.0908H87.0687C87.0189 59.0975 87.1537 61.1046 87.4711 63.0867C85.8375 63.5445 84.2606 64.185 82.7704 64.9959C81.3317 62.6074 80.5551 59.8789 80.5206 57.0908H80.5103ZM83.6631 46.9565C85.0846 47.7745 86.6009 48.4157 88.1781 48.8657C87.6697 50.8328 87.3364 52.841 87.1822 54.8668H80.629C80.9648 52.0166 82.0116 49.2964 83.6734 46.9565H83.6631ZM97.8169 39.4952C100.495 39.4952 102.75 42.6221 103.901 47.2352C101.762 47.6645 99.5855 47.8788 97.4041 47.875C95.2448 47.8813 93.0905 47.6669 90.9748 47.2352C92.5899 42.6221 95.1492 39.4952 97.8273 39.4952H97.8169ZM97.3009 50.1041C99.6686 50.107 102.03 49.8684 104.349 49.392C104.632 51.1992 104.756 53.0277 104.721 54.8565H89.4216C89.5681 53.0125 89.8719 51.1843 90.3298 49.392C92.6243 49.8704 94.9623 50.109 97.3061 50.1041H97.3009ZM113.508 54.8668H106.95C106.995 52.8585 106.86 50.8501 106.548 48.8657C108.182 48.4101 109.759 47.7696 111.248 46.9565C112.693 49.3453 113.474 52.0757 113.514 54.8668H113.508ZM106.837 57.0908H113.385C113.044 59.9383 111.998 62.6556 110.34 64.9959C108.917 64.1811 107.401 63.5401 105.825 63.0867C106.338 61.1215 106.678 59.1152 106.842 57.0908H106.837ZM109.974 45.166C108.738 45.8121 107.44 46.3307 106.099 46.714C105.603 44.4867 104.684 42.3757 103.39 40.4962C105.961 41.4423 108.235 43.0538 109.979 45.166H109.974ZM92.1616 40.4807C90.693 42.3392 89.5677 44.4448 88.8385 46.6985C87.5454 46.3206 86.2977 45.8015 85.1182 45.1505C87.0558 43.0472 89.4744 41.4448 92.1667 40.4807H92.1616ZM84.0501 66.7967C85.2841 66.1506 86.5808 65.6319 87.9201 65.2487C88.4194 67.4756 89.3407 69.5863 90.6342 71.4665C88.0657 70.5187 85.7952 68.9053 84.0552 66.7916L84.0501 66.7967ZM101.862 71.482C103.328 69.6215 104.453 67.5165 105.185 65.2642C106.477 65.6453 107.725 66.1642 108.906 66.8122C106.972 68.9137 104.557 70.5144 101.868 71.4768L101.862 71.482Z" fill="#5E0064"/>
<path opacity="0.3" d="M96.4186 19.8458C96.5555 19.8458 96.6867 19.7915 96.7835 19.6947C96.8803 19.5979 96.9346 19.4667 96.9346 19.3298C96.9389 19.2636 96.9295 19.1972 96.907 19.1347C96.8845 19.0722 96.8495 19.015 96.804 18.9667C96.7585 18.9183 96.7036 18.8798 96.6427 18.8535C96.5817 18.8272 96.516 18.8137 96.4496 18.8138C96.3127 18.8138 96.1815 18.8682 96.0847 18.965C95.988 19.0617 95.9336 19.193 95.9336 19.3298C95.9294 19.3961 95.9388 19.4625 95.9612 19.525C95.9837 19.5874 96.0188 19.6446 96.0642 19.693C96.1097 19.7414 96.1646 19.7799 96.2256 19.8062C96.2866 19.8325 96.3523 19.846 96.4186 19.8458Z" fill="white"/>
<path d="M131.728 107.814L134.334 54.4488C134.352 54.0231 134.284 53.5981 134.134 53.1991C133.984 52.8002 133.756 52.4356 133.462 52.1269C133.168 51.8182 132.816 51.5719 132.424 51.4025C132.033 51.2332 131.612 51.1443 131.186 51.1412L106.124 50.78C105.248 50.7803 104.406 51.1175 103.772 51.7217C103.138 52.3259 102.761 53.1509 102.719 54.0257L100.139 107.396C100.121 107.821 100.188 108.246 100.338 108.644C100.488 109.043 100.717 109.407 101.011 109.716C101.304 110.024 101.657 110.27 102.048 110.439C102.439 110.607 102.86 110.696 103.286 110.698L128.348 111.064C129.22 111.057 130.057 110.717 130.685 110.112C131.314 109.507 131.687 108.685 131.728 107.814Z" fill="#5E0064"/>
<path opacity="0.4" d="M131.728 107.814L134.334 54.4488C134.352 54.0231 134.284 53.5981 134.134 53.1991C133.984 52.8002 133.756 52.4356 133.462 52.1269C133.168 51.8182 132.816 51.5719 132.424 51.4025C132.033 51.2332 131.612 51.1443 131.186 51.1412L106.124 50.78C105.248 50.7803 104.406 51.1175 103.772 51.7217C103.138 52.3259 102.761 53.1509 102.719 54.0257L100.139 107.396C100.121 107.821 100.188 108.246 100.338 108.644C100.488 109.043 100.717 109.407 101.011 109.716C101.304 110.024 101.657 110.27 102.048 110.439C102.439 110.607 102.86 110.696 103.286 110.698L128.348 111.064C129.22 111.057 130.057 110.717 130.685 110.112C131.314 109.507 131.687 108.685 131.728 107.814Z" fill="black"/>
<path d="M132.688 107.814L135.268 54.4488C135.286 54.0229 135.219 53.5976 135.069 53.1983C134.92 52.7991 134.691 52.4341 134.398 52.1253C134.104 51.8165 133.75 51.5702 133.359 51.4011C132.968 51.232 132.546 51.1436 132.12 51.1412L107.058 50.78C106.183 50.7804 105.341 51.1177 104.708 51.7221C104.075 52.3264 103.699 53.1513 103.657 54.0257L101.052 107.396C101.034 107.821 101.102 108.246 101.251 108.644C101.401 109.043 101.63 109.407 101.924 109.716C102.217 110.024 102.57 110.27 102.961 110.439C103.352 110.607 103.773 110.696 104.199 110.698L129.261 111.064C130.141 111.068 130.989 110.732 131.627 110.126C132.265 109.521 132.645 108.692 132.688 107.814Z" fill="#5E0064"/>
<path opacity="0.9" d="M132.533 55.1711C132.539 55.0032 132.512 54.8357 132.453 54.6786C132.393 54.5215 132.303 54.3778 132.187 54.2562C132.071 54.1345 131.932 54.0373 131.778 53.9702C131.624 53.9031 131.458 53.8676 131.29 53.8656L107.709 53.5199C107.363 53.5209 107.031 53.6548 106.781 53.894C106.531 54.1332 106.383 54.4593 106.367 54.8047L103.828 106.668C103.821 106.836 103.848 107.004 103.908 107.161C103.967 107.319 104.057 107.463 104.173 107.584C104.289 107.706 104.429 107.803 104.583 107.87C104.737 107.937 104.904 107.972 105.072 107.973L128.643 108.324C128.988 108.325 129.32 108.192 129.57 107.953C129.82 107.715 129.968 107.39 129.984 107.045L132.533 55.1711Z" fill="white"/>
<path opacity="0.3" d="M127.09 88.092C128.635 86.1459 129.537 83.7673 129.67 81.2859C129.8 78.8697 129.131 76.4777 127.766 74.4799C127.766 74.4799 127.766 74.4799 127.766 74.4489C127.744 74.4142 127.72 74.3813 127.693 74.3509C126.68 72.9316 125.34 71.7772 123.786 70.985C122.232 70.1929 120.511 69.7864 118.767 69.7998C116.96 69.8135 115.18 70.2312 113.556 71.0223C111.932 71.8133 110.505 72.9577 109.381 74.3715L109.308 74.4489V74.4799C107.761 76.4246 106.859 78.8039 106.728 81.2859C106.592 83.7044 107.262 86.0998 108.632 88.0971V88.1229C108.632 88.1229 108.632 88.1229 108.658 88.1539C109.669 89.585 111.013 90.7496 112.573 91.5477C114.133 92.3457 115.864 92.7535 117.616 92.736C119.419 92.7222 121.197 92.306 122.819 91.5177C124.441 90.7295 125.866 89.5891 126.992 88.1797C127.022 88.1512 127.049 88.1201 127.074 88.0868L127.09 88.092ZM117.683 91.4047C116.037 91.4047 114.654 89.4852 113.952 86.6523C115.264 86.3906 116.598 86.2593 117.936 86.2602C119.261 86.2579 120.584 86.3893 121.883 86.6523C120.898 89.4594 119.324 91.3789 117.683 91.3789V91.4047ZM118.003 84.8928C116.551 84.8898 115.102 85.0333 113.679 85.321C113.506 84.2134 113.43 83.093 113.452 81.9722H122.843C122.754 83.1024 122.567 84.2229 122.286 85.321C120.886 85.025 119.459 84.8729 118.029 84.867L118.003 84.8928ZM108.054 81.9722H112.084C112.056 83.2035 112.139 84.4349 112.332 85.6513C111.328 85.9317 110.358 86.3246 109.442 86.8226C108.553 85.35 108.074 83.6665 108.054 81.9464V81.9722ZM109.989 75.708C110.863 76.2079 111.793 76.6011 112.76 76.8793C112.449 78.087 112.245 79.3199 112.151 80.5635H108.121C108.328 78.8143 108.97 77.1448 109.989 75.708ZM118.679 71.1259C120.325 71.1259 121.708 73.0454 122.415 75.8782C121.102 76.1422 119.765 76.2736 118.426 76.2704C117.1 76.2752 115.777 76.1438 114.479 75.8782C115.449 73.0609 117.038 71.1414 118.679 71.1414V71.1259ZM118.359 77.6378C119.811 77.6408 121.26 77.4973 122.683 77.2095C122.856 78.3188 122.932 79.4411 122.91 80.5635H113.519C113.61 79.4319 113.797 78.3099 114.076 77.2095C115.485 77.5038 116.92 77.6525 118.359 77.6533V77.6378ZM128.307 80.5635H124.277C124.306 79.3305 124.223 78.0974 124.03 76.8793C125.034 76.5988 126.003 76.2059 126.919 75.708C127.807 77.1792 128.286 78.8607 128.307 80.579V80.5635ZM124.221 81.9464H128.251C128.043 83.6939 127.401 85.3614 126.383 86.7968C125.509 86.2969 124.579 85.9036 123.612 85.6255C123.923 84.4194 124.126 83.1883 124.221 81.9464ZM126.151 74.6244C125.391 75.0171 124.594 75.3318 123.772 75.5635C123.467 74.1954 122.901 72.899 122.105 71.7451C123.681 72.3308 125.074 73.3244 126.14 74.6244H126.151ZM115.216 71.7451C114.307 72.8854 113.608 74.1783 113.152 75.5635C112.358 75.3349 111.592 75.02 110.867 74.6244C112.058 73.327 113.548 72.3389 115.206 71.7451H115.216ZM110.237 87.8959C110.995 87.5044 111.79 87.1898 112.611 86.9568C112.918 88.3241 113.484 89.6201 114.277 90.7752C112.695 90.1938 111.296 89.1997 110.227 87.8959H110.237ZM121.166 90.7752C122.075 89.6349 122.774 88.3419 123.23 86.9568C124.023 87.1876 124.789 87.5024 125.516 87.8959C124.318 89.196 122.822 90.1843 121.156 90.7752H121.166Z" fill="#5E0064"/>
<path opacity="0.3" d="M109.447 52.7769C109.584 52.7769 109.715 52.7225 109.812 52.6257C109.909 52.529 109.963 52.3977 109.963 52.2609C109.963 52.1292 109.913 52.0025 109.823 51.9065C109.733 51.8106 109.609 51.7528 109.478 51.7449C109.341 51.7449 109.21 51.7992 109.113 51.896C109.016 51.9928 108.962 52.124 108.962 52.2609C108.962 52.3925 109.012 52.5193 109.102 52.6152C109.192 52.7111 109.316 52.769 109.447 52.7769Z" fill="white"/>
</svg>
